<svg xmlns="http://www.w3.org/2000/svg" xmlns:xlink="http://www.w3.org/1999/xlink" width="1140" height="685" viewBox="0 0 1140 685"><title>Artboard 1 Copy 3</title><defs><path id="a" d="M0 .018h421.674V124H0V.018z"/><path id="c" d="M43.729.972H1.23S.876 30.591.876 51.31c0 0-2.009 21.847 10.849 33.771 12.641 11.716 29.392 18.974 32.004 20.062 2.613-1.088 19.358-8.346 31.99-20.062C88.585 73.157 86.574 51.31 86.574 51.31c0-20.719-.359-50.338-.359-50.338"/><path id="e" d="M43.729.972H1.23S.876 30.591.876 51.31c0 0-2.009 21.847 10.849 33.771 12.641 11.716 29.392 18.974 32.004 20.062 2.613-1.088 19.358-8.346 31.99-20.062C88.585 73.157 86.574 51.31 86.574 51.31c0-20.719-.359-50.338-.359-50.338"/><path id="g" d="M43.729.972H1.23S.876 30.591.876 51.31c0 0-2.009 21.847 10.849 33.771 12.641 11.716 29.392 18.974 32.004 20.062 2.613-1.088 19.358-8.346 31.99-20.062C88.585 73.157 86.574 51.31 86.574 51.31c0-20.719-.359-50.338-.359-50.338"/><path id="i" d="M43.729.972H1.23S.876 30.591.876 51.31c0 0-2.009 21.847 10.849 33.771 12.641 11.716 29.392 18.974 32.004 20.062 2.613-1.088 19.358-8.346 31.99-20.062C88.585 73.157 86.574 51.31 86.574 51.31c0-20.719-.359-50.338-.359-50.338"/><path id="k" d="M43.729.972H1.23S.876 30.591.876 51.31c0 0-2.009 21.847 10.849 33.771 12.641 11.716 29.392 18.974 32.004 20.062 2.613-1.088 19.358-8.346 31.99-20.062C88.585 73.157 86.574 51.31 86.574 51.31c0-20.719-.359-50.338-.359-50.338"/><path id="m" d="M43.729.972H1.23S.876 30.591.876 51.31c0 0-2.009 21.847 10.849 33.771 12.641 11.716 29.392 18.974 32.004 20.062 2.613-1.088 19.358-8.346 31.99-20.062C88.585 73.157 86.574 51.31 86.574 51.31c0-20.719-.359-50.338-.359-50.338"/><path id="o" d="M43.729.972H1.23S.876 30.591.876 51.31c0 0-2.009 21.847 10.849 33.771 12.641 11.716 29.392 18.974 32.004 20.062 2.613-1.088 19.358-8.346 31.99-20.062C88.585 73.157 86.574 51.31 86.574 51.31c0-20.719-.359-50.338-.359-50.338"/><path id="q" d="M43.729.972H1.23S.876 30.591.876 51.31c0 0-2.009 21.847 10.849 33.771 12.641 11.716 29.392 18.974 32.004 20.062 2.613-1.088 19.358-8.346 31.99-20.062C88.585 73.157 86.574 51.31 86.574 51.31c0-20.719-.359-50.338-.359-50.338"/><path id="s" d="M43.729.972H1.23S.876 30.591.876 51.31c0 0-2.009 21.847 10.849 33.771 12.641 11.716 29.392 18.974 32.004 20.062 2.613-1.088 19.358-8.346 31.99-20.062C88.585 73.157 86.574 51.31 86.574 51.31c0-20.719-.359-50.338-.359-50.338"/><path id="u" d="M43.729.972H1.23S.876 30.591.876 51.31c0 0-2.009 21.847 10.849 33.771 12.641 11.716 29.392 18.974 32.004 20.062 2.613-1.088 19.358-8.346 31.99-20.062C88.585 73.157 86.574 51.31 86.574 51.31c0-20.719-.359-50.338-.359-50.338"/><path id="w" d="M43.729.972H1.23S.876 30.591.876 51.31c0 0-2.009 21.847 10.849 33.771 12.641 11.716 29.392 18.974 32.004 20.062 2.613-1.088 19.358-8.346 31.99-20.062C88.585 73.157 86.574 51.31 86.574 51.31c0-20.719-.359-50.338-.359-50.338"/><path id="y" d="M43.729.972H1.23S.876 30.591.876 51.31c0 0-2.009 21.847 10.849 33.771 12.641 11.716 29.392 18.974 32.004 20.062 2.613-1.088 19.358-8.346 31.99-20.062C88.585 73.157 86.574 51.31 86.574 51.31c0-20.719-.359-50.338-.359-50.338"/><path id="A" d="M43.729.972H1.23S.876 30.591.876 51.31c0 0-2.009 21.847 10.849 33.771 12.641 11.716 29.392 18.974 32.004 20.062 2.613-1.088 19.358-8.346 31.99-20.062C88.585 73.157 86.574 51.31 86.574 51.31c0-20.719-.359-50.338-.359-50.338"/><path id="C" d="M43.729.972H1.23S.876 30.591.876 51.31c0 0-2.009 21.847 10.849 33.771 12.641 11.716 29.392 18.974 32.004 20.062 2.613-1.088 19.358-8.346 31.99-20.062C88.585 73.157 86.574 51.31 86.574 51.31c0-20.719-.359-50.338-.359-50.338"/></defs><g fill="none" fill-rule="evenodd"><path fill="#FAFAFA" d="M-24-23h1168v712H-24z"/><path fill="#212120" d="M489.073 313.796c-2.78 0-2.895.116-2.895 1.853v8.165c0 6.08.29 6.891 3.532 7.238l1.679.174c.348.232.232 1.274-.115 1.448-3.127-.116-5.096-.174-7.354-.174-2.491 0-4.46.116-6.718.174-.347-.174-.463-1.1-.116-1.448l.985-.174c3.243-.578 3.358-1.158 3.358-7.238v-20.847c0-6.079-.405-7.064-3.416-7.296l-1.505-.115c-.348-.232-.232-1.275.115-1.448 2.838.058 4.806.173 7.297.173 2.258 0 4.227-.057 6.716-.173.348.173.464 1.216.117 1.448l-1.101.115c-3.358.348-3.474 1.217-3.474 7.296v6.66c0 1.795.116 1.853 2.895 1.853h16.562c2.779 0 2.895-.058 2.895-1.853v-6.66c0-6.079-.116-6.948-3.532-7.296l-1.101-.115c-.347-.232-.231-1.275.116-1.448 2.664.116 4.633.173 7.007.173 2.259 0 4.227-.057 6.833-.173.347.173.463 1.216.116 1.448l-1.216.115c-3.36.348-3.474 1.217-3.474 7.296v20.847c0 6.08.115 6.833 3.474 7.238l1.389.174c.348.232.232 1.274-.115 1.448-2.78-.116-4.748-.174-7.007-.174-2.374 0-4.46.058-7.007.174-.347-.174-.463-1.1-.116-1.448l1.1-.174c3.533-.578 3.533-1.158 3.533-7.238v-8.165c0-1.737-.116-1.853-2.895-1.853h-16.562zM528.097 302.968c0-6.022-.115-6.891-3.532-7.296l-.927-.116c-.347-.231-.231-1.274.116-1.448 2.49.116 4.459.174 6.834.174h10.886c3.706 0 7.122 0 7.817-.174.348.985.695 5.154.927 7.702-.232.348-1.158.463-1.448.116-.868-2.722-1.39-4.748-4.401-5.501-1.216-.29-3.07-.348-5.617-.348h-4.17c-1.736 0-1.736.116-1.736 2.316v11.582c0 1.62.173 1.62 1.91 1.62h3.359c2.433 0 4.228-.115 4.922-.346.695-.232 1.1-.58 1.39-2.027l.463-2.374c.29-.348 1.274-.348 1.506.058 0 1.39-.232 3.648-.232 5.849 0 2.084.232 4.284.232 5.559-.232.405-1.216.405-1.506.057l-.521-2.258c-.232-1.042-.637-1.911-1.795-2.201-.811-.231-2.2-.29-4.46-.29h-3.357c-1.738 0-1.911.059-1.911 1.564v8.165c0 3.07.173 5.038 1.1 6.023.695.695 1.91 1.332 7.007 1.332 4.459 0 6.138-.232 7.412-.87 1.042-.578 2.606-2.605 4.11-5.616.407-.29 1.217-.116 1.449.405-.405 2.027-1.853 6.486-2.606 8.05a696.048 696.048 0 00-15.52-.174h-5.21c-2.491 0-4.46.058-7.876.174-.347-.174-.463-1.101-.116-1.448l1.91-.174c3.302-.29 3.59-1.158 3.59-7.238v-20.847zM580.963 319.066c-.405-1.274-.637-1.448-2.374-1.448h-8.744c-1.448 0-1.795.174-2.2 1.39l-2.028 6.08c-.868 2.606-1.273 4.17-1.273 4.807 0 .694.29 1.042 1.68 1.158l1.91.174c.405.289.405 1.215-.116 1.447-1.506-.115-3.3-.115-6.02-.173-1.913 0-3.998.115-5.56.173-.349-.232-.464-1.158-.117-1.447l1.911-.174c1.39-.116 2.664-.753 3.474-2.838 1.043-2.663 2.665-6.427 5.096-12.913l5.907-15.635c.81-2.084 1.158-3.184.984-4.111 1.39-.406 2.374-1.448 3.011-2.2.348 0 .753.115.87.521.752 2.547 1.678 5.211 2.547 7.759l7.934 23.279c1.678 4.98 2.431 5.848 4.921 6.138l1.564.174c.405.289.29 1.215 0 1.447-2.374-.115-4.4-.173-7.007-.173-2.78 0-4.979.115-6.659.173-.464-.232-.522-1.158-.116-1.447l1.68-.174c1.215-.116 2.025-.464 2.025-1.043 0-.636-.288-1.679-.752-3.068l-2.548-7.876zm-11.466-5.154c-.463 1.332-.405 1.39 1.217 1.39h7.122c1.68 0 1.795-.232 1.274-1.795l-3.126-9.439c-.463-1.39-.985-2.953-1.333-3.648h-.116c-.173.29-.753 1.679-1.389 3.417l-3.649 10.075zM603.782 301.81c0-4.053-.29-5.27-2.722-5.617l-1.274-.174c-.463-.29-.521-1.216.058-1.447 4.922-.29 9.613-.464 14.535-.464 4.864 0 8.976.348 12.739 1.738 7.818 2.838 11.756 9.439 11.756 17.082 0 7.355-3.532 13.666-10.134 17.256-3.764 2.027-8.512 2.78-12.971 2.78-3.706 0-7.412-.463-9.44-.463-2.431 0-4.516.058-7.237.174-.348-.174-.464-1.101-.116-1.448l1.33-.174c3.36-.463 3.476-1.158 3.476-7.238V301.81zm4.749 20.673c0 3.069.173 4.922 1.158 6.312 1.274 1.795 3.474 2.374 7.122 2.374 11.234 0 16.272-7.354 16.272-18.125 0-6.37-3.07-17.14-18.241-17.14-3.416 0-5.27.463-5.732.81-.464.348-.58 1.795-.58 4.4v21.369zM650.8 310.612c0 1.563.173 1.563 1.91 1.563h3.938c2.374 0 4.226-.116 4.922-.347.636-.232 1.1-.521 1.448-2.027l.52-2.316c.29-.348 1.275-.348 1.506 0 0 1.39-.23 3.706-.23 5.848 0 2.085.23 4.285.23 5.617-.23.348-1.1.348-1.506 0l-.579-2.258c-.29-1.042-.753-1.853-1.852-2.201-.812-.231-2.259-.29-4.459-.29h-3.939c-1.736 0-1.91.059-1.91 1.564v8.05c0 6.08.115 6.948 3.532 7.238l1.97.174c.347.23.23 1.274-.116 1.447-3.417-.115-5.386-.173-7.702-.173-2.548 0-4.517.058-7.239.173-.347-.173-.463-1.1-.116-1.447l1.447-.174c3.36-.405 3.475-1.158 3.475-7.238v-20.847c0-6.08-.115-6.891-3.475-7.296l-.925-.116c-.348-.232-.232-1.274.116-1.448 2.431.116 4.4.174 6.717.174h10.655c3.705 0 7.064 0 7.816-.174 0 2.664.06 5.443.174 7.644-.174.347-.983.52-1.389.173-.463-2.605-1.159-4.748-4.053-5.501-1.275-.347-3.186-.347-5.617-.347h-3.533c-1.737 0-1.737.116-1.737 2.316v12.219zM669.56 313.796c0-11.582 8.684-20.44 20.613-20.44 13.377 0 20.095 9.67 20.095 19.861 0 11.697-8.918 20.21-20.095 20.21-12.854 0-20.614-9.208-20.614-19.63m34.918 1.216c0-9.555-4.228-19.863-15.287-19.863-6.024 0-13.84 4.111-13.84 16.793 0 8.571 4.17 19.688 15.576 19.688 6.95 0 13.551-5.21 13.551-16.618M715.996 303.026c0-5.501-.174-6.486-2.548-6.775l-1.853-.232c-.405-.29-.405-1.216.058-1.448 3.243-.29 7.239-.463 12.913-.463 3.59 0 7.007.29 9.67 1.737 2.78 1.448 4.807 4.054 4.807 8.107 0 5.502-4.343 8.513-7.24 9.67-.287.348 0 .927.29 1.39 4.634 7.47 7.703 12.103 11.64 15.404.985.869 2.432 1.506 3.996 1.62.289.117.347.58.058.812-.52.174-1.448.29-2.548.29-4.922 0-7.875-1.448-11.987-7.296-1.505-2.143-3.88-6.14-5.675-8.745-.868-1.274-1.795-1.853-4.111-1.853-2.606 0-2.722.058-2.722 1.274v7.297c0 6.08.116 6.775 3.475 7.238l1.216.174c.347.289.23 1.274-.116 1.447-2.606-.115-4.575-.173-6.891-.173-2.432 0-4.517.058-7.238.173-.348-.173-.464-1.042-.116-1.447l1.447-.174c3.359-.405 3.475-1.158 3.475-7.238v-20.79zm4.748 8.28c0 1.043 0 1.68.174 1.91.174.175 1.042.29 3.995.29 2.085 0 4.286-.231 5.965-1.504 1.564-1.217 2.895-3.243 2.895-7.181 0-4.575-2.837-8.917-9.265-8.917-3.59 0-3.764.23-3.764 1.852v13.55z"/><g transform="translate(359 281)"><mask id="b" fill="#fff"><use xlink:href="#a"/></mask><path fill="#212120" d="M405.344 42.815c0 6.08.116 6.949 3.476 7.238l1.852.174c.348.232.232 1.274-.115 1.448-3.302-.116-5.27-.174-7.587-.174-2.315 0-4.343.058-8.049.174-.348-.174-.463-1.158 0-1.448l2.085-.174c3.301-.29 3.591-1.158 3.591-7.238V16.93c0-1.797 0-1.854-1.737-1.854h-3.186c-2.489 0-5.675.116-7.123 1.447-1.39 1.274-1.969 2.549-2.604 3.996-.464.348-1.275.058-1.506-.405.925-2.606 1.795-6.312 2.2-8.628.174-.116.927-.174 1.1 0 .347 1.852 2.258 1.794 4.921 1.794h23.453c3.127 0 3.648-.115 4.517-1.62.29-.117.927-.059 1.042.174-.637 2.373-1.042 7.064-.868 8.802-.232.462-1.216.462-1.506.116-.174-1.448-.578-3.591-1.447-4.229-1.332-.984-3.532-1.447-6.718-1.447h-4.11c-1.739 0-1.68.057-1.68 1.969v25.769z" mask="url(#b)"/></g><text fill="#666" font-family="Adobe Garamond Pro" font-size="33.516" transform="translate(359 281)"><tspan x="198.903" y="83.365"> </tspan></text><g><path fill="#666" d="M485.132 382.572c-3.83 0-6.246-1.186-7.113-1.686-.547-1.003-1.14-4.241-1.231-6.384.228-.32.912-.41 1.094-.136.684 2.324 2.553 6.793 7.842 6.793 3.83 0 5.7-2.508 5.7-5.244 0-2.006-.411-4.24-3.74-6.382l-4.331-2.827c-2.28-1.505-4.924-4.104-4.924-7.842 0-4.332 3.374-7.843 9.3-7.843 1.415 0 3.056.274 4.24.593.594.183 1.232.274 1.597.274.41 1.094.82 3.647.82 5.562-.181.274-.911.41-1.14.137-.591-2.19-1.822-5.152-6.2-5.152-4.468 0-5.425 2.963-5.425 5.06 0 2.645 2.188 4.56 3.875 5.609l3.648 2.28c2.872 1.777 5.699 4.422 5.699 8.754 0 5.014-3.784 8.434-9.711 8.434M514.632 364.015c.364.32.683 1.05.683 1.824 0 .821-.456 1.687-1.003 1.687a.795.795 0 01-.638-.319c-1.003-1.23-2.69-2.416-4.56-2.416-3.191 0-6.291 2.507-6.291 7.34 0 3.556 2.462 7.796 7.34 7.796 2.645 0 4.013-1.185 5.06-2.735.366-.09.776.228.822.638-1.55 3.374-4.97 4.65-7.614 4.65-2.417 0-4.651-.774-6.247-2.325-1.595-1.55-2.644-3.784-2.644-6.747 0-4.925 3.465-10.168 11.034-10.168 1.048 0 2.826.228 4.058.775M520.832 356.127c0-2.69-.046-2.963-1.414-3.784l-.454-.274c-.228-.136-.228-.775 0-.91 1.138-.365 3.281-1.05 4.923-1.915.183 0 .365.09.457.272-.046 1.368-.137 3.648-.137 5.654v9.575c0 .41.044.775.181.865 1.642-1.277 3.83-2.37 6.155-2.37 4.332 0 5.882 2.69 5.882 5.882v7.613c0 3.284.092 3.785 1.733 3.968l1.23.136c.32.227.228 1.003-.09 1.14a77.399 77.399 0 00-4.56-.137c-1.642 0-3.009.046-4.24.137-.32-.137-.41-.913-.092-1.14l.912-.136c1.688-.274 1.733-.684 1.733-3.968v-6.519c0-2.918-1.414-4.879-4.332-4.879-1.55 0-2.735.548-3.556 1.23-.82.684-.957.912-.957 2.51v7.659c0 3.284.091 3.74 1.732 3.968l.958.136c.32.18.228 1.003-.092 1.14a62.287 62.287 0 00-4.285-.137 68.93 68.93 0 00-4.468.137c-.32-.137-.41-.913-.092-1.14l1.14-.136c1.687-.183 1.733-.684 1.733-3.968v-20.608zM561.549 372.678c0 5.7-3.921 9.802-9.621 9.802-5.243 0-9.346-3.692-9.346-9.392 0-5.744 4.33-9.848 9.71-9.848 5.108 0 9.257 3.83 9.257 9.438m-9.803-8.07c-3.01 0-5.243 2.872-5.243 7.888 0 4.15 1.869 8.616 5.882 8.616 4.012 0 5.243-4.194 5.243-7.704 0-3.876-1.551-8.8-5.882-8.8M584.391 372.678c0 5.7-3.922 9.802-9.62 9.802-5.243 0-9.346-3.692-9.346-9.392 0-5.744 4.331-9.848 9.71-9.848 5.107 0 9.256 3.83 9.256 9.438m-9.803-8.07c-3.008 0-5.243 2.872-5.243 7.888 0 4.15 1.87 8.616 5.882 8.616 4.013 0 5.242-4.194 5.242-7.704 0-3.876-1.55-8.8-5.88-8.8M594.058 376.736c0 3.283.091 3.739 1.731 3.967l1.095.137c.32.227.23 1.002-.092 1.139a69.544 69.544 0 00-4.42-.137c-1.643 0-3.01.046-4.378.137-.32-.137-.41-.912-.09-1.14l1.047-.136c1.687-.228 1.733-.684 1.733-3.967v-20.608c0-2.69-.046-2.964-1.414-3.785l-.455-.273c-.229-.137-.229-.775 0-.912 1.138-.364 3.282-1.048 4.924-1.915.181 0 .364.092.456.274-.046 1.367-.137 3.647-.137 5.654v21.565z"/><path stroke="#212120" stroke-width="2" d="M366.657 317.903h86"/><path fill="#212120" d="M414.099 301.397c-2.88 0-2.973 3.988-2.941 5.123h-.96s-.004-.019-.007-.058c-.022-.307-.09-1.845.683-3.788.398-1.011.894-2.277.976-3.677.098-1.62-.36-3.417-2.162-5.201-1.801 1.784-2.257 3.581-2.161 5.201.085 1.4.58 2.666.979 3.677.772 1.943.705 3.481.682 3.788l-.003.058h-.966c.037-1.135-.06-5.123-2.94-5.123-1.831 0-2.48 1.404-2.32 2.726.14 1.106.85 2.156 1.926 2.285 0 0-.281-1.894 1.238-1.894 1.18 0 1.354 1.38 1.37 2.006h-1.219v1.427h2.59c0 .307-.065.568-.161.787-.344.773-.798 1.189-.631 1.309.417.297.81.091.81.091 0 1.919.806 2.168.806 2.168.004 0 .81-.982.81-2.369 0 0 .52-.426.177-1.199a1.973 1.973 0 0 1-.161-.787h2.59v-1.427H411.885c.018-.626.193-2.006 1.37-2.006 1.52 0 1.239 1.894 1.239 1.894 1.077-.129 1.787-1.179 1.925-2.285.165-1.322-.486-2.726-2.32-2.726"/><path stroke="#212120" stroke-width="2" d="M452.723 338.137c0-20.718-.358-50.337-.358-50.337H367.38s-.355 29.619-.355 50.337c0 0-2.007 21.848 10.848 33.77 12.643 11.717 29.393 18.976 32.007 20.064 2.61-1.088 19.357-8.347 31.99-20.063 12.866-11.923 10.853-33.771 10.853-33.771h0zm4.805-.145c0-23.028-.405-55.974-.405-55.974h-94.504s-.396 32.946-.396 55.974c0 0-2.238 24.296 12.063 37.562 14.054 13.029 32.68 21.096 35.594 22.307 2.899-1.211 21.527-9.278 35.575-22.307 14.312-13.266 12.073-37.562 12.073-37.562h0z"/></g><g><g transform="translate(366 288)"><mask id="d" fill="#fff"><use xlink:href="#c"/></mask><path fill="#212120" d="M8.231 49.412c-1.15 1.216-3.526 2.108-5.255 2.157 3.743-3.563 4.2-8.39 5.111-12.818h.268c.91 4.427 1.39 9.255 5.135 12.818-1.73-.049-4.107-.94-5.259-2.157M4.536 39.358c0 .563.481 1.031 1.056 1.031.578 0 1.056-.468 1.056-1.03s-.478-1.03-1.056-1.03c-.575 0-1.056.468-1.056 1.03m2.64-3.162c0 .56.482 1.03 1.055 1.03.578 0 1.058-.47 1.058-1.03 0-.563-.48-1.032-1.058-1.032-.573 0-1.056.47-1.056 1.032m2.643 3.161c0 .563.477 1.031 1.054 1.031.576 0 1.056-.468 1.056-1.03s-.48-1.03-1.056-1.03c-.577 0-1.054.468-1.054 1.03" mask="url(#d)"/></g><g transform="translate(366 288)"><mask id="f" fill="#fff"><use xlink:href="#e"/></mask><path fill="#212120" d="M17.27 70.914c-1.154 1.217-3.53 2.108-5.261 2.154 3.748-3.56 4.204-8.388 5.113-12.817h.266c.911 4.429 1.39 9.258 5.136 12.817-1.729-.046-4.105-.937-5.254-2.154M13.573 60.86c0 .564.478 1.032 1.054 1.032.579 0 1.057-.468 1.057-1.032 0-.564-.478-1.031-1.057-1.031-.576 0-1.054.467-1.054 1.03m2.64-3.162c0 .563.481 1.029 1.057 1.029.573 0 1.055-.466 1.055-1.03 0-.561-.482-1.03-1.055-1.03-.576 0-1.057.469-1.057 1.03m2.639 3.164c0 .564.482 1.032 1.058 1.032.577 0 1.056-.468 1.056-1.032 0-.564-.479-1.031-1.056-1.031-.576 0-1.058.467-1.058 1.03" mask="url(#f)"/></g><g transform="translate(366 288)"><mask id="h" fill="#fff"><use xlink:href="#g"/></mask><path fill="#212120" d="M26.245 49.412c-1.15 1.216-3.527 2.108-5.254 2.157 3.744-3.563 4.201-8.39 5.113-12.818h.262c.914 4.427 1.392 9.255 5.137 12.818-1.73-.049-4.105-.94-5.258-2.157M22.55 39.358c0 .563.478 1.031 1.056 1.031.578 0 1.057-.468 1.057-1.03s-.479-1.03-1.057-1.03-1.056.468-1.056 1.03m2.643-3.162c0 .56.48 1.03 1.053 1.03.58 0 1.055-.47 1.055-1.03 0-.563-.475-1.032-1.055-1.032-.573 0-1.053.47-1.053 1.032m2.64 3.161c0 .563.481 1.031 1.056 1.031.574 0 1.055-.468 1.055-1.03s-.48-1.03-1.055-1.03-1.056.468-1.056 1.03" mask="url(#h)"/></g><g transform="translate(366 288)"><mask id="j" fill="#fff"><use xlink:href="#i"/></mask><path fill="#212120" d="M44.32 49.412c-1.153 1.216-3.528 2.108-5.257 2.157 3.743-3.563 4.198-8.39 5.112-12.818h.265c.91 4.427 1.392 9.255 5.134 12.818-1.73-.049-4.107-.94-5.255-2.157m-3.695-10.054c0 .563.475 1.031 1.055 1.031.574 0 1.054-.468 1.054-1.03s-.48-1.03-1.054-1.03c-.58 0-1.055.468-1.055 1.03m2.637-3.162c0 .56.481 1.03 1.058 1.03.576 0 1.053-.47 1.053-1.03 0-.563-.477-1.032-1.053-1.032-.577 0-1.058.47-1.058 1.032m2.641 3.161c0 .563.481 1.031 1.056 1.031.577 0 1.056-.468 1.056-1.03s-.479-1.03-1.056-1.03c-.575 0-1.056.468-1.056 1.03" mask="url(#j)"/></g><g transform="translate(366 288)"><mask id="l" fill="#fff"><use xlink:href="#k"/></mask><path fill="#212120" d="M35.283 70.914c-1.153 1.217-3.528 2.108-5.256 2.154 3.745-3.56 4.198-8.388 5.11-12.817h.267c.91 4.429 1.39 9.258 5.138 12.817-1.731-.046-4.107-.937-5.26-2.154M31.589 60.86c0 .564.478 1.032 1.057 1.032.574 0 1.055-.468 1.055-1.032 0-.564-.481-1.031-1.055-1.031-.58 0-1.057.467-1.057 1.03m2.637-3.162c0 .563.48 1.029 1.058 1.029.576 0 1.057-.466 1.057-1.03 0-.561-.481-1.03-1.057-1.03-.577 0-1.058.469-1.058 1.03m2.644 3.164c0 .564.48 1.032 1.054 1.032.578 0 1.056-.468 1.056-1.032 0-.564-.478-1.031-1.056-1.031-.574 0-1.054.467-1.054 1.03" mask="url(#l)"/></g><g transform="translate(366 288)"><mask id="n" fill="#fff"><use xlink:href="#m"/></mask><path fill="#212120" d="M53.35 70.914c-1.15 1.217-3.524 2.108-5.249 2.154 3.742-3.56 4.193-8.388 5.11-12.817h.262c.914 4.429 1.391 9.258 5.138 12.817-1.733-.046-4.106-.937-5.26-2.154M49.656 60.86c0 .564.483 1.032 1.058 1.032.576 0 1.055-.468 1.055-1.032 0-.564-.479-1.031-1.055-1.031-.575 0-1.058.467-1.058 1.03m2.637-3.162c0 .563.483 1.029 1.056 1.029.58 0 1.061-.466 1.061-1.03 0-.561-.482-1.03-1.06-1.03-.574 0-1.057.469-1.057 1.03m2.642 3.164c0 .564.481 1.032 1.06 1.032.573 0 1.057-.468 1.057-1.032 0-.564-.484-1.031-1.057-1.031-.579 0-1.06.467-1.06 1.03" mask="url(#n)"/></g><g transform="translate(366 288)"><mask id="p" fill="#fff"><use xlink:href="#o"/></mask><path fill="#212120" d="M61.676 49.412c-1.148 1.216-3.524 2.108-5.251 2.157 3.74-3.563 4.199-8.39 5.11-12.818h.264c.913 4.427 1.39 9.255 5.139 12.818-1.73-.049-4.11-.94-5.262-2.157m-3.692-10.054c0 .563.479 1.031 1.056 1.031.576 0 1.055-.468 1.055-1.03s-.48-1.03-1.055-1.03c-.577 0-1.056.468-1.056 1.03m2.64-3.162c0 .56.482 1.03 1.052 1.03.577 0 1.059-.47 1.059-1.03 0-.563-.482-1.032-1.06-1.032-.57 0-1.051.47-1.051 1.032m2.636 3.161c0 .563.482 1.031 1.058 1.031.58 0 1.056-.468 1.056-1.03s-.475-1.03-1.056-1.03c-.576 0-1.058.468-1.058 1.03" mask="url(#p)"/></g><g transform="translate(366 288)"><mask id="r" fill="#fff"><use xlink:href="#q"/></mask><path fill="#212120" d="M79.75 49.412c-1.153 1.216-3.53 2.108-5.257 2.157 3.748-3.563 4.2-8.39 5.115-12.818h.263c.91 4.427 1.392 9.255 5.133 12.818-1.727-.049-4.103-.94-5.255-2.157m-3.694-10.054c0 .563.477 1.031 1.054 1.031.576 0 1.053-.468 1.053-1.03s-.478-1.03-1.053-1.03c-.576 0-1.054.468-1.054 1.03m2.637-3.162c0 .56.483 1.03 1.058 1.03.579 0 1.055-.47 1.055-1.03 0-.563-.477-1.032-1.056-1.032-.575 0-1.056.47-1.056 1.032m2.639 3.161c0 .563.48 1.031 1.06 1.031.573 0 1.05-.468 1.05-1.03s-.477-1.03-1.05-1.03c-.58 0-1.06.468-1.06 1.03" mask="url(#r)"/></g><g transform="translate(366 288)"><mask id="t" fill="#fff"><use xlink:href="#s"/></mask><path fill="#212120" d="M70.714 70.914c-1.15 1.217-3.527 2.108-5.254 2.154 3.742-3.56 4.199-8.388 5.113-12.817h.262c.912 4.429 1.39 9.258 5.135 12.817-1.728-.046-4.104-.937-5.256-2.154M67.018 60.86c0 .564.479 1.032 1.057 1.032.577 0 1.058-.468 1.058-1.032 0-.564-.481-1.031-1.058-1.031-.578 0-1.057.467-1.057 1.03m2.64-3.162c0 .563.478 1.029 1.056 1.029.577 0 1.053-.466 1.053-1.03 0-.561-.476-1.03-1.053-1.03-.578 0-1.055.469-1.055 1.03M72.3 60.86c0 .564.475 1.032 1.054 1.032.577 0 1.055-.468 1.055-1.032 0-.564-.478-1.031-1.055-1.031-.58 0-1.054.467-1.054 1.03" mask="url(#t)"/></g><g transform="translate(366 288)"><mask id="v" fill="#fff"><use xlink:href="#u"/></mask><path fill="#212120" d="M-1.742 114.844C-2.892 116.062-5.27 116.954-7 117c3.745-3.56 4.202-8.388 5.113-12.817h.264c.913 4.43 1.391 9.257 5.137 12.817-1.729-.047-4.104-.938-5.256-2.156m-3.696-10.052c0 .562.48 1.032 1.055 1.032.578 0 1.056-.47 1.056-1.032 0-.563-.478-1.032-1.056-1.032-.576 0-1.055.47-1.055 1.032m2.64-3.163c0 .561.478 1.031 1.056 1.031.575 0 1.056-.47 1.056-1.03 0-.564-.48-1.032-1.056-1.032-.578 0-1.056.468-1.056 1.031m2.64 3.163c0 .562.48 1.032 1.055 1.032.574 0 1.058-.47 1.058-1.032 0-.563-.484-1.032-1.058-1.032-.575 0-1.055.47-1.055 1.032" mask="url(#v)"/></g><g transform="translate(366 288)"><mask id="x" fill="#fff"><use xlink:href="#w"/></mask><path fill="#212120" d="M26.245 94.193c-1.15 1.218-3.527 2.108-5.254 2.155 3.744-3.562 4.201-8.388 5.113-12.818h.262c.914 4.43 1.392 9.256 5.137 12.818-1.73-.047-4.105-.937-5.258-2.155M22.55 84.14c0 .56.478 1.029 1.056 1.029.578 0 1.057-.468 1.057-1.03s-.479-1.03-1.057-1.03-1.056.468-1.056 1.03m2.643-3.164c0 .563.48 1.032 1.053 1.032.58 0 1.055-.47 1.055-1.032 0-.563-.475-1.031-1.055-1.031-.573 0-1.053.468-1.053 1.03m2.64 3.166c0 .56.481 1.029 1.056 1.029.574 0 1.055-.468 1.055-1.03s-.48-1.03-1.055-1.03-1.056.468-1.056 1.03" mask="url(#x)"/></g><g transform="translate(366 288)"><mask id="z" fill="#fff"><use xlink:href="#y"/></mask><path fill="#212120" d="M44.32 94.193c-1.153 1.218-3.528 2.108-5.257 2.155 3.743-3.562 4.198-8.388 5.112-12.818h.265c.91 4.43 1.392 9.256 5.134 12.818-1.73-.047-4.107-.937-5.255-2.155M40.624 84.14c0 .56.475 1.029 1.055 1.029.574 0 1.054-.468 1.054-1.03s-.48-1.03-1.054-1.03c-.58 0-1.055.468-1.055 1.03m2.637-3.164c0 .563.481 1.032 1.058 1.032.576 0 1.053-.47 1.053-1.032 0-.563-.477-1.031-1.053-1.031-.577 0-1.058.468-1.058 1.03m2.641 3.166c0 .56.481 1.029 1.056 1.029.577 0 1.056-.468 1.056-1.03s-.479-1.03-1.056-1.03c-.575 0-1.056.468-1.056 1.03" mask="url(#z)"/></g><g transform="translate(366 288)"><mask id="B" fill="#fff"><use xlink:href="#A"/></mask><path fill="#212120" d="M61.676 94.193c-1.148 1.218-3.524 2.108-5.251 2.155 3.74-3.562 4.199-8.388 5.11-12.818h.264c.913 4.43 1.39 9.256 5.139 12.818-1.73-.047-4.11-.937-5.262-2.155M57.984 84.14c0 .56.479 1.029 1.056 1.029.576 0 1.055-.468 1.055-1.03s-.48-1.03-1.055-1.03c-.577 0-1.056.468-1.056 1.03m2.64-3.164c0 .563.482 1.032 1.052 1.032.577 0 1.059-.47 1.059-1.032 0-.563-.482-1.031-1.06-1.031-.57 0-1.051.468-1.051 1.03m2.636 3.166c0 .56.482 1.029 1.058 1.029.58 0 1.056-.468 1.056-1.03s-.475-1.03-1.056-1.03c-.576 0-1.058.468-1.058 1.03" mask="url(#B)"/></g><g transform="translate(366 288)"><mask id="D" fill="#fff"><use xlink:href="#C"/></mask><path fill="#212120" d="M70.714 114.844c-1.15 1.218-3.527 2.11-5.254 2.156 3.742-3.56 4.199-8.388 5.113-12.817h.262c.912 4.43 1.39 9.257 5.135 12.817-1.728-.047-4.104-.938-5.256-2.156m-3.696-10.052c0 .562.479 1.032 1.057 1.032.577 0 1.058-.47 1.058-1.032 0-.563-.481-1.032-1.058-1.032-.578 0-1.057.47-1.057 1.032m2.64-3.163c0 .561.478 1.031 1.056 1.031.577 0 1.053-.47 1.053-1.03 0-.564-.476-1.032-1.053-1.032-.578 0-1.055.468-1.055 1.031m2.642 3.163c0 .562.475 1.032 1.054 1.032.577 0 1.055-.47 1.055-1.032 0-.563-.478-1.032-1.055-1.032-.58 0-1.054.47-1.054 1.032" mask="url(#D)"/></g></g><g fill="#212120"><path d="M427.497 308.567c.023-.142.064-.285.08-.323.02-.037 0-.101-.042-.141-.095-.091-.161-.974-.086-1.084.022-.035.022-.128 0-.2-.041-.104 0-.245.135-.56.1-.235.178-.481.173-.551-.01-.071.005-.151.027-.181.06-.078.112-.823.082-1.086a.908.908 0 00-.075-.272c-.073-.107-.204-3.062-.14-3.115.08-.072.344-.9.382-1.2.022-.181.074-.338.112-.356.042-.023.05-.078.02-.157-.023-.08 0-.236.068-.426a.963.963 0 00.072-.535c-.024-.162 0-.38.085-.69.06-.246.136-.52.157-.604.023-.08.062-.15.088-.153.029-.006.049-.034.048-.07-.026-.229.846-1.428 1.048-1.449.138-.012.303.165.32.345.02.28.097.015.119-.427.013-.255.034-.505.06-.558.21-.573.363-.783.606-.855.258-.07.57.072.723.327.209.351.39 1.242.339 1.676-.007.076-.032.322-.05.547-.03.374-.027.402.076.467a.471.471 0 00.216.053.369.369 0 01.214.07c.057.045.105.055.1.024-.003-.03.038-.07.089-.09.06-.019.109-.13.136-.307.06-.36.18-.604.395-.773a.898.898 0 00.247-.357c.078-.229.366-.58.607-.733.07-.049.21-.176.306-.283.392-.44 1.203-.826 1.552-.728.085.025.276.063.429.085.655.106 1.428.792 1.325 1.165a.85.85 0 00-.018.27.638.638 0 01-.138.32c-.141.183-.151.183-.675.234l-.521.05-.013.246c-.008.132.007.265.026.295.02.03.07.198.11.373.042.174.098.417.125.542.026.12.032.264.006.327-.031.07-.024.183.014.298.06.181-.224.68-.125.897.105.217-.15.496-.13.72.014.161-.004.34-.046.417-.136.26-.295 1.097-.243 1.27.027.09.155.36.289.587.208.37.248.485.29.883.065.541.209 1.033.352 1.216.056.074.136.18.174.233.04.063.124.096.209.09.075-.01.142.008.147.047.008.075.137.116.313.1.072-.006.132.006.134.037.002.031.39.184.469.178.099-.007.85.44 1.11.67.278.24.816.921.83 1.047.003.046.11.25.398.766.196.347.636.751.943.865.32.122.38.253.172.375-.1.054-.188.07-.374.03-.137-.02-.28-.02-.325 0-.041.021-.165.021-.28-.009-.19-.042-.214-.036-.29.086l-.083.135-.241-.129c-.216-.113-.242-.122-.323-.039-.107.122-.164.128-.41.04-.107-.043-.208-.06-.226-.043-.026.027.413.74.546.891.027.03.09.164.138.302.052.14.12.263.139.275.029.014.059.068.063.118.012.126.488.904.6.981a.267.267 0 01.106.19c.009.096.052.126.19.142.1.011.234.051.303.085.105.054.117.08.075.255-.057.292-.192.354-.644.312l-.718-.052a5.694 5.694 0 01-.858-.156 10.419 10.419 0 00-.786-.177c-.151-.025-.303-.058-.332-.079a1.372 1.372 0 00-.34-.036c-.15 0-.44-.059-.634-.119-.563-.174-1.077-.36-1.232-.442a.863.863 0 00-.373-.062.782.782 0 01-.362-.066c-.515-.308-.561-.323-.662-.21-.082.084-.12.095-.197.05-.19-.11-.245-.11-.34-.012-.091.102-.104.102-.335.021-.23-.08-.235-.08-.397.032-.125.091-.242.124-.472.127-.165.002-.314-.003-.336-.022-.017-.012-.166.022-.331.077-.166.057-.403.138-.525.177-.304.108-.434.11-.627.034-.14-.059-.172-.059-.277.03-.113.091-.14.091-.327.02-.111-.04-.214-.055-.232-.032-.018.02-.094.001-.167-.037-.076-.04-.166-.062-.202-.045-.034.014-.29.03-.567.035-.41.003-.551-.02-.73-.117-.124-.065-.23-.164-.233-.22-.007-.05-.098-.184-.208-.294a1.242 1.242 0 01-.29-.44c-.111-.32-.177-1.128-.12-1.456m.953-.969l.146-.433m-.007-1.239l-.015-.143m.207 4.211c-.023.024-.08.02-.123-.012m-.631-5.85c.052.045.163-.14.157-.256-.01-.05.044-.166.112-.262.067-.093.187-.332.27-.529.145-.345.265-.49.277-.334.003.041-.062.223-.154.4-.155.333-.162.457-.015.382.1-.049.1.03.007.318-.144.428-.163.913-.045 1.14.022.041.015.154-.022.243-.087.212.009.386.16.284a.41.41 0 00.137-.155c.045-.104.44-.129.483-.026.017.038-.006.07-.057.075-.095.01-.363.283-.432.435-.04.09-.028.092.106.055a.84.84 0 00.199-.1.535.535 0 01.18-.078c.088-.02.118-.06.106-.11-.072-.197-.055-.239.078-.233.078 0 .17.027.214.06.052.03.1.02.157-.039.174-.172.387-.279.415-.206.09.2.582-.164.65-.476.017-.08.058-.119.12-.104.105.023.27-.25.31-.505.013-.086.132-.298.26-.465.2-.249.245-.282.286-.205.033.065-.018.173-.178.381-.122.155-.23.355-.245.442-.051.447-.18.673-.498.893-.105.073-.19.162-.183.201 0 .036-.05.103-.117.16-.205.16-.616.712-.614.811.02.188-.144.115-.181-.082l-.032-.193-.15.27c-.114.193-.143.286-.1.331.045.042.025.141-.08.343-.078.153-.137.278-.125.275.013 0-.005.082-.038.184-.054.18-.145.251-.154.127-.012-.12-.317.287-.418.564-.06.16-.106.241-.11.19-.01-.051-.043-.093-.087-.088-.096.006-.253.575-.201.72.039.101.068.076.322-.243.193-.242.296-.342.327-.296.053.07.393-.339.347-.203a8.31 8.31 0 01-.222.548c-.128.269-.158.439-.117.696.02.138.117.108.163-.053.02-.077.073-.248.127-.377.049-.131.086-.266.082-.306-.002-.044.017-.074.047-.077.03-.005.05-.04.048-.083-.008-.038.024-.105.067-.144.157-.16.145.083-.035.533-.16.42-.174.486-.127.825.026.204.073.364.104.358.03 0 .095-.107.14-.237.099-.26.246-.474.322-.484.029 0 .12-.072.199-.154.166-.17.299-.205.313-.087.006.074-.39.503-.472.512-.096.005-.222.206-.215.326.014.156.05.156.164-.01 0 0 .76-.02.743.083-.04.279.302.069.494-.302.115-.23.159-.267.225-.223.05.033.075.102.057.174-.024.114-.29.44-.517.63-.111.097-.111.108-.014.133.059.017.149 0 .203-.039.054-.043.19-.082.31-.094.188-.019.233-.053.397-.28.093-.147.198-.263.228-.268.023-.002.04.082.03.19-.008.181 0 .198.106.168.08-.015.165-.14.276-.378.199-.447.342-.44.243.001-.022.096-.01.12.044.094.132-.068.227-.376.233-.73 0-.38.04-.5.137-.452.076.04.082.574.008.755-.05.123.008.19.085.095.086-.103.199-.678.176-.904-.006-.106.118-.5.132-.699.025-.422.033-.45.143-.467.128-.008.163.15.073.34-.048.106-.042.387.044 1.431.004.095.095 1.056.224.997.039-.024.418-.065.507-.05.074.01.112-.01.105-.058a.367.367 0 01.04-.179c.035-.072.035-.397.152-.403.012-.008-.006-.097-.031-.21-.048-.212.029-.368.109-.212a.143.143 0 00.139.07c.072-.006.109.031.113.127.007.072.059.15.106.171.05.023.12.148.16.288.087.313.24.571.495.852.229.25.366.048.458.144.09.091.209.112.147.026-.02-.022-.014-.062.019-.084.022-.02.12.053.219.164.179.212.252.252.238.117-.007-.12.089-.105.204.041.08.1.114.111.172.054.046-.048.087-.054.153-.004.076.05.104.05.127-.005.022-.045.067-.034.133.035.114.104.215.122.206.031 0-.03-.1-.179-.22-.33-.12-.153-2.124-2.005-2.117-2.364.007-.252-.007-.283-.174-.41-.172-.14-.267-.39-.154-.399.033-.007.132.08.218.19.183.232.312.255.733.122.392-.125.749-.05.906.193.045.065.195.221.336.343.133.124.253.25.253.283.008.026.037.051.077.05.034-.003.158.102.277.236.235.26.392.414.754.755.132.124.366.351.515.498.497.484.568.55.654.535.058-.004-.008-.165-.274-.665a22.582 22.582 0 00-.477-.867c-.066-.115-.17-.306-.235-.426-.066-.116-.165-.22-.221-.23-.06-.009-.373-.51-.587-.657a5.356 5.356 0 01-.178-.146c-.15-.137-.566-.363-.655-.355-.043.003-.124-.039-.188-.098-.201-.185-.737-.306-1.185-.266-.34.031-.723-.117-.74-.293-.011-.102.12-.102.37.002.298.123.424.108.367-.058-.023-.07-.022-.149.003-.168.084-.06-.012-.176-.224-.256-.164-.054-.222-.054-.318.007-.116.081-.235.064-.245-.04-.011-.094.13-.22.25-.234.085-.008.11-.03.079-.094-.054-.11.032-.298.155-.307.057-.005.116-.036.13-.066.042-.084.22-.09.41-.012.158.067 1.225 1.11 1.55 1.08.189-.014.15-.104-.184-.383-.227-.187-.295-.277-.28-.369a.177.177 0 00-.074-.179c-.18-.127-.448-.493-.46-.64-.022-.179-.11-.292-.292-.37-.102-.037-.122-.085-.108-.18.006-.07-.04-.312-.107-.543a8.02 8.02 0 01-.196-1.038c-.072-.65-.117-.757-.544-1.366a.718.718 0 01-.133-.285c-.015-.14.109-.886.26-1.596.028-.144.046-.393.028-.554-.02-.216-.005-.299.057-.329.073-.037.08-.094.03-.343-.067-.344-.03-.897.029-.944.037-.028.064-.128.064-.23 0-.103.012-.235.03-.289.02-.058-.012-.266-.071-.47-.082-.3-.091-.41-.052-.604.043-.228.038-.234-.115-.329a4.458 4.458 0 01-.373-.265c-.26-.222-.571-.38-.72-.368-.064.006-.142-.012-.171-.042-.092-.073-.415.107-.702.397-.127.13-.251.24-.277.24-.128.01-.494.781-.538 1.127-.016.092-.04.193-.068.212-.083.062-.05.561-.042 1.015l.007.453.28.108c.144.058.34.164.43.225.22.172.422.403.518.516.07.077.13.164.132.194.008.074-.173.09-.254.02-.093-.077-.273-.12-.487-.222-.225-.112-.321-.105-.314.017.004.05-.051.198-.128.324-.342.565-.326.68.083.835.22.091.229.091.51-.029.208-.085.316-.17.394-.309.194-.357.497-.22.464.218-.02.27-.17.49-.503.753-.218.166-.308.2-.618.236-.198.023-.42.024-.482.01-.144-.039-.227.085-.234.013-.013-.13-.132-.199-.25-.14-.091.043-.34.586-.366.79-.082.708-.568 1.226-.614 1.46-.06.283-.381.707-.6.78a1.34 1.34 0 00-.358.214c-.324.26-.574.351-.768.293a.721.721 0 00-.361-.003c-.178.046-.217.033-.453-.167-.151-.123.069-.264.055-.414-.005-.055.02-.125.058-.15.043-.029.09-.173.116-.327.025-.15.072-.366.104-.472.038-.109.08-.246.093-.306.07-.229.108-.566.117-.882 0-.179.02-.379.04-.439.017-.062.032-.27.032-.468-.003-.575.034-.984.102-1.079.054-.076.047-.1-.037-.147-.075-.047-.105-.143-.133-.425-.017-.196-.013-.405.012-.465.025-.055.038-.318.032-.58-.04-1.117-.032-1.353.026-1.463a.432.432 0 00.06-.225c-.006-.06.03-.248.075-.418.052-.168.097-.376.105-.465l.009-.162-.171.122c-.095.07-.275.282-.4.468-.245.37-.11.568-.22.587-.05.006-.116.07-.138.141a8.288 8.288 0 01-.153.378c-.122.3-.125.501-.008.488.106-.004.108.07.013.168-.052.054-.064.124-.032.223.036.114.023.16-.057.218-.12.076-.134.21-.025.231.04.008.016.09-.07.23-.13.208-.116.321.028.305.104-.007.104.043.003.176a.331.331 0 01-.202.12c-.162.01-.162.175-.004.203.123.015.15.083.065.145-.031.022-.034.085-.006.14.023.063 0 .162-.06.251-.054.084-.096.2-.086.255.005.058-.053.165-.13.246-.147.155-.116.224.106.211.199-.019.234.071.07.172-.081.045-.143.105-.14.13 0 .03-.073.081-.17.125-.156.067-.172.094-.154.281.028.231.037.231.302-.089.162-.188.395-.246.319-.086a.815.815 0 01-.141.215c-.057.063-.104.147-.101.188.004.038-.044.197-.103.342-.104.248-.133.403-.072.396.019 0 .108-.095.203-.208.18-.219.026.152-.075.387-.07.171-.07.226-.008.307.063.084.052.136-.062.341-.181.337-.23.535-.134.611m4.547 0c.04-.229.106-.336.207-.342.099-.01.108.122.015.214a.276.276 0 00-.063.187c.018.11.023.106.07-.022.2-.549.468-.86.77-.887.156-.018.23-.057.303-.175.062-.095.13-.142.185-.125.056.012.147-.018.216-.076.066-.052.175-.09.236-.075.07.01.15-.027.21-.099.08-.094.09-.177.05-.466-.047-.34-.043-.36.12-.534.13-.143.183.032.088.153l-.133.16.128.01c.1.006.12.027.1.123-.071.347-.071.368.085.36.225-.02.56.229.752.552.176.293.224.47.144.525-.02.018-.1-.108-.167-.28-.117-.288-.401-.61-.527-.602-.073.008-.044.084.07.188.123.115.264.535.34.992.059.367.046.519-.051.529-.055.005-.055.094-.008.36.055.33.052.364-.071.497-.066.08-.124.202-.117.265.014.145-.076.07-.138-.116-.036-.105-.018-.165.083-.274.123-.123.126-.152.06-.498-.06-.338-.06-.36.046-.396.086-.038.1-.07.06-.168a2.598 2.598 0 01-.097-.361c-.066-.31-.208-.563-.33-.585a1.076 1.076 0 00-.386.048c-.011.005.163.204.119.223-.05.019-.047.053.012.139a.22.22 0 01.032.215c-.025.053-.057.252-.08.44-.014.193-.055.369-.087.392-.105.082-.158.44-.121.824.042.48.14.709.282.659.056-.021.1-.018.103.012.01.076-.184.306-.268.315-.183.018-.573-.718-.525-1.003.009-.077-.008-.151-.04-.17-.145-.07-.07-.114-.082-.217-.008-.075-.041-.128-.084-.125-.106.012-.376-.264-.436-.427-.026-.074-.016-.26.016-.411.079-.345.074-.437-.024-.423-.132.009-.264.302-.273.608-.01.159-.038.29-.065.294-.027 0-.055-.027-.06-.064a2.515 2.515 0 01.002-.643c.026-.147.022-.162-.038-.101-.107.108-.268.497-.373.896-.076.283-.083.439-.036.768.044.336.042.41-.025.414-.067.004-.093-.114-.161-.745-.041-.417-.061-.842-.038-.951m-3.023 6.295c-.043-.043-.085-.076-.098-.074m.292-7.242c.026.018.063 0 .08-.033.015-.027.693.37.742.366.143-.01.036-.962.11-1 .064-.03.119-.34.155-.873.005-.076.036-.354.066-.617.03-.27-.048-.7.089-.86a.588.588 0 00.147-.32c.002-.101.049-.183.12-.222.14-.078.148-.406.01-.34-.043.022-.077.015-.081-.011-.01-.1-.156-.04-.172.069-.014.08-.062.117-.176.125-.086.009-.182.046-.212.08a.847.847 0 01-.168.137c-.16.1-.471.774-.453.975a.146.146 0 01-.048.12c-.031.02-.04.102-.016.174.032.097.014.142-.065.173-.074.023-.093.064-.065.146.024.058.023.282-.004.498-.024.21-.04.443-.032.522.008.072-.008.16-.034.19a.704.704 0 00-.044.273c-.003.12-.003.258-.003.31 0 .05.023.106.054.118m.087-3.241c.038 0 .164-.136.29-.295.14-.177.288-.31.384-.34.088-.02.314-.09.5-.151.419-.131 1.26-.225 1.674-.182.483.05.656.05.65 0-.004-.032-.091-.083-.197-.121a.728.728 0 01-.234-.123c-.02-.03-.084-.032-.133-.012-.051.02-.24.015-.417-.015a4.694 4.694 0 00-.894 0c-.59.053-.738.106-1.062.382a.572.572 0 01-.222.119c-.112.01-.348.227-.383.352-.05.15-.017.392.044.386m.056-2.943c.027-.005.05-.03.048-.057m.315 1.868c.01.015.093-.026.174-.086.095-.07.33-.143.594-.187.445-.08.445-.08.445-.241a.43.43 0 01.049-.221c.025-.032.034-.131.029-.232-.012-.096.005-.191.036-.211.026-.021.035-.18.02-.348-.012-.17-.01-.403.013-.525.057-.353.059-1.53.002-1.578a.374.374 0 01-.066-.193c-.024-.274-.251-.618-.452-.681-.181-.055-.19-.051-.34.15-.086.124-.16.235-.16.26.008.026-.032.156-.077.29-.05.135-.093.34-.1.458-.008.205-.05.636-.086 1.007a.98.98 0 01-.062.268c-.018.04 0 .172.05.294.073.188.073.26 0 .514-.058.234-.066.316-.01.39.057.077.049.128-.058.288-.101.155-.117.226-.078.379a.78.78 0 00.077.205m2.036-.691l.004-.267m-.181 2.666c.168.254.612.569.818.584.105.009.273.03.368.043.327.049.917-.253 1.032-.527.087-.22.082-.265-.028-.124-.16.217-.344.324-.637.353-.337.037-.506 0-.763-.183a1.092 1.092 0 01-.414-.573c-.051-.15.075-.647.176-.693.056-.024-.135-.266-.127-.23 0 .047-.075.117-.177.16-.36.155-.498.82-.248 1.19m2.57-5.76c.06-.004.754.377.914.499.37.305.564.413.73.424.102.003.205.03.223.053.014.02.11.006.208-.03.099-.034.203-.064.225-.057.023.005.096-.03.162-.081.092-.075.106-.141.086-.36-.028-.294-.172-.526-.4-.645-.073-.04-.246-.128-.378-.205a1.337 1.337 0 00-.498-.153c-.368-.028-.825.014-.823.074.005.03-.053.075-.114.099-.241.1-.504.404-.335.382m.443-.145c.095-.011.485.1.849.227.357.123.653.348.67.512.016.127-.175.139-.323.019-.065-.054-.151-.098-.186-.094a.517.517 0 01-.211-.083c-.115-.071-.287-.196-.458-.277-.174-.077-.328-.18-.341-.225-.013-.046-.013-.08 0-.08m.355-.251c.01 0 .208.014.446.039.46.047.737.149.873.333.123.163.018.265-.181.163-.332-.16-.731-.294-.924-.31-.157-.01-.213-.04-.218-.118-.003-.061-.003-.107.004-.107m.538 14.408a.329.329 0 00-.021-.16m.33-.214a.448.448 0 01-.061.238m1.465.929c-.027-.008-.055-.07-.058-.143m.148-4.26c.135.139.31.309.398.374.188.146.753.842.756.932.005.03.337.736.378.688.014-.021.259.256.486.462.403.367 1.046.507 1.104.495.073-.026.022-.106-.258-.433a5.279 5.279 0 01-.53-.771c-.34-.68-.504-.93-.784-1.155a13.316 13.316 0 00-.89-.621c-.262-.174-.31-.082-.695-.24-.286-.12-.28-.065.035.269m1.866 6.195c-.041-.02-.052-.015-.022.014M377.96 308.356c.024-.142.065-.285.08-.323.02-.037 0-.101-.043-.14-.094-.092-.16-.975-.086-1.084.023-.036.023-.13 0-.2-.04-.104 0-.245.135-.561.1-.235.18-.481.173-.55-.009-.071.006-.152.027-.181.061-.08.113-.823.083-1.087a.92.92 0 00-.075-.271c-.074-.108-.204-3.063-.14-3.117.08-.071.345-.9.383-1.198.02-.181.074-.34.11-.357.043-.023.051-.078.022-.157-.025-.08 0-.235.067-.426a.97.97 0 00.072-.534c-.023-.163 0-.38.085-.69.06-.245.137-.521.157-.604.024-.08.062-.15.089-.152.028-.007.049-.034.047-.071-.025-.23.847-1.428 1.049-1.45.137-.011.302.167.32.346.02.28.097.015.119-.427.012-.255.034-.505.06-.558.21-.573.362-.783.605-.854.259-.071.572.07.724.326.208.35.39 1.242.339 1.677a20.35 20.35 0 00-.05.546c-.03.374-.027.402.075.467a.477.477 0 00.216.053.368.368 0 01.215.07c.057.046.105.055.099.024-.003-.03.039-.071.09-.09.06-.018.108-.131.135-.307.06-.36.181-.604.395-.773a.9.9 0 00.247-.357c.078-.228.366-.58.606-.733.072-.05.212-.175.306-.283.393-.441 1.204-.825 1.553-.728.084.025.276.064.43.085.654.107 1.426.792 1.323 1.165a.823.823 0 00-.018.27.648.648 0 01-.137.32c-.142.184-.152.184-.676.234l-.52.05-.013.245a.788.788 0 00.025.297c.02.028.07.197.112.372.041.175.096.417.123.543.028.118.032.263.007.327-.032.068-.025.183.014.298.06.18-.225.679-.126.896.105.216-.148.496-.13.72.015.16-.003.34-.046.417-.135.26-.294 1.097-.243 1.27.028.089.156.359.29.587.208.369.249.486.29.883.064.54.209 1.034.353 1.217l.174.23c.039.065.124.097.209.09.075-.009.14.01.146.048.009.076.137.116.314.1.07-.006.13.006.133.036.002.031.392.185.469.18.099-.007.85.44 1.112.67.277.239.815.922.829 1.047.002.047.11.25.398.766.195.348.635.75.942.865.32.122.382.254.174.374-.101.055-.19.07-.375.03-.138-.02-.28-.02-.326 0-.042.022-.165.022-.28-.008-.19-.041-.212-.036-.29.087l-.083.134-.24-.13c-.216-.113-.243-.12-.324-.037-.107.12-.164.127-.41.038-.109-.042-.209-.06-.228-.042-.025.027.415.74.548.89.026.03.09.166.138.303.053.139.12.263.14.275.027.014.057.068.061.118.011.126.488.905.601.98a.27.27 0 01.105.19c.01.097.052.127.19.143.101.012.233.05.304.085.104.055.115.079.074.254-.058.294-.193.354-.644.313-.204-.014-.529-.04-.717-.051a5.827 5.827 0 01-.859-.157 10.054 10.054 0 00-.785-.176c-.152-.026-.303-.058-.333-.08a1.364 1.364 0 00-.339-.036c-.15 0-.44-.058-.634-.118-.564-.174-1.078-.361-1.232-.442a.85.85 0 00-.374-.062.777.777 0 01-.36-.066c-.517-.31-.562-.323-.664-.212-.082.084-.119.096-.197.05-.19-.11-.244-.11-.339-.011-.09.102-.105.102-.336.02-.229-.08-.235-.08-.397.034-.125.09-.24.123-.472.125-.165.003-.313-.002-.335-.02-.017-.013-.166.02-.33.076-.167.057-.404.138-.527.177-.303.108-.434.11-.626.035-.14-.06-.172-.06-.277.03-.113.09-.14.09-.328.018-.11-.04-.213-.054-.23-.031-.02.019-.095.002-.168-.037-.076-.04-.166-.062-.202-.045-.034.015-.289.03-.567.035-.41.003-.55-.02-.729-.116-.125-.066-.23-.164-.234-.222-.007-.05-.099-.184-.209-.293a1.27 1.27 0 01-.289-.44c-.112-.32-.177-1.127-.12-1.456m.952-.97l.147-.431m-.007-1.24l-.015-.143m.207 4.21c-.024.026-.08.02-.123-.011m-.632-5.85c.052.045.164-.141.157-.255-.009-.051.043-.166.112-.263a3.63 3.63 0 00.272-.53c.144-.344.263-.49.276-.333.003.04-.062.224-.155.4-.153.333-.16.458-.013.382.1-.05.1.03.007.317-.144.429-.164.914-.045 1.14.022.043.014.156-.022.245-.087.21.009.385.16.283a.41.41 0 00.136-.155c.045-.104.442-.128.484-.026.017.038-.007.069-.057.075-.095.01-.363.284-.432.435-.04.089-.03.092.106.055a.81.81 0 00.198-.101.536.536 0 01.18-.076c.087-.022.118-.061.106-.112-.072-.195-.055-.238.078-.232a.4.4 0 01.213.06c.052.03.101.02.158-.04.174-.17.387-.278.415-.204.09.199.581-.164.65-.477.016-.081.057-.118.12-.104.106.023.27-.25.312-.504.01-.087.13-.298.259-.465.2-.25.245-.282.286-.206.032.065-.018.173-.18.382-.12.155-.23.354-.243.44-.051.449-.18.674-.498.894-.106.074-.19.163-.183.202 0 .036-.051.102-.117.159-.205.16-.616.712-.614.81.02.189-.144.117-.181-.081l-.032-.193-.151.269c-.113.194-.142.288-.1.332.046.043.025.14-.08.344-.077.153-.136.278-.125.274.014 0-.005.083-.038.184-.054.179-.144.25-.153.126-.013-.12-.317.288-.42.566-.058.158-.104.24-.108.188-.01-.051-.044-.093-.087-.088-.096.007-.253.576-.202.72.039.103.069.077.323-.241.193-.243.296-.343.326-.297.053.069.394-.34.348-.203a8.31 8.31 0 01-.222.547c-.128.269-.16.438-.117.696.02.138.117.108.162-.053.02-.077.074-.247.128-.377.049-.131.086-.266.082-.305-.002-.045.017-.074.047-.078.029-.005.049-.04.047-.083-.007-.038.025-.105.067-.144.157-.158.146.083-.034.533-.16.42-.174.486-.127.825.026.204.072.365.104.358.03 0 .094-.107.14-.238.099-.257.245-.473.322-.483.029 0 .12-.072.199-.153.165-.17.299-.205.312-.087.007.073-.388.5-.471.51-.096.007-.222.208-.215.327.013.156.05.156.163-.01 0 0 .762-.02.744.083-.04.28.302.069.493-.302.116-.228.159-.267.226-.223.05.033.075.102.056.174-.024.114-.29.442-.517.632-.11.095-.11.107-.013.133.059.017.149 0 .203-.041a.721.721 0 01.31-.092c.188-.02.233-.053.396-.281.094-.146.198-.262.228-.27.024 0 .04.083.03.193-.007.18 0 .197.107.168.079-.016.164-.142.276-.38.199-.446.342-.44.242.002-.021.096-.01.119.045.095.13-.07.227-.377.232-.73 0-.382.04-.502.138-.453.076.04.08.575.008.756-.05.122.007.189.085.094.086-.103.199-.677.176-.903-.007-.106.117-.501.132-.7.025-.422.033-.451.143-.467.127-.007.162.15.072.34-.047.107-.041.387.045 1.432.004.094.095 1.055.223.997.04-.024.418-.066.508-.052.074.01.112-.01.105-.057a.356.356 0 01.04-.18c.034-.072.034-.397.152-.402.012-.008-.007-.097-.032-.211-.048-.21.03-.367.11-.21a.144.144 0 00.138.069c.073-.006.109.03.114.127.007.072.058.149.106.17.05.024.12.149.16.29.087.313.24.57.495.852.228.25.366.048.457.143.092.09.209.113.147.027-.02-.022-.014-.063.02-.085.022-.02.119.053.218.165.179.212.252.252.238.116-.006-.12.089-.106.204.042.08.098.115.11.172.054.046-.05.087-.054.153-.004.076.048.103.048.129-.006.02-.044.066-.034.133.036.112.103.213.12.206.03 0-.03-.101-.18-.22-.33-.12-.152-2.125-2.004-2.12-2.363.008-.252-.005-.284-.172-.411-.172-.141-.268-.39-.154-.4.032-.006.132.082.218.19.183.234.31.256.732.123.392-.125.749-.05.907.194.044.063.195.22.335.342.135.124.254.25.254.283.007.026.037.05.075.05.035-.003.16.102.278.235.235.26.394.416.755.756.13.124.365.35.514.497.497.486.568.55.655.537.057-.004-.01-.166-.275-.665a22.067 22.067 0 00-.477-.868c-.066-.115-.17-.306-.235-.426-.064-.116-.166-.22-.22-.231-.06-.008-.374-.51-.587-.656a5.356 5.356 0 01-.178-.146c-.15-.136-.566-.363-.656-.354-.043.003-.123-.04-.188-.098-.201-.186-.737-.306-1.185-.267-.34.032-.722-.117-.738-.293-.012-.101.119-.101.369.002.298.123.423.108.366-.058-.022-.07-.022-.15.003-.167.083-.061-.012-.177-.223-.257-.165-.053-.222-.053-.318.007-.117.08-.236.065-.245-.04-.012-.093.13-.22.25-.233.084-.01.11-.032.078-.095-.053-.111.033-.298.155-.307.058-.004.117-.036.13-.066.042-.084.222-.09.412-.011.156.067 1.224 1.11 1.549 1.078.188-.014.149-.104-.183-.381-.23-.188-.296-.278-.282-.37a.178.178 0 00-.073-.18c-.18-.125-.45-.492-.46-.64-.024-.178-.111-.291-.292-.37-.103-.036-.124-.083-.11-.18.007-.07-.038-.31-.105-.542a7.841 7.841 0 01-.197-1.038c-.072-.651-.116-.757-.544-1.365-.07-.098-.13-.224-.132-.285-.015-.142.108-.887.26-1.597.027-.144.046-.393.027-.554-.018-.215-.005-.3.058-.33.072-.036.08-.092.029-.341-.066-.345-.03-.897.03-.945.036-.028.064-.128.064-.231 0-.102.01-.233.03-.29.02-.055-.012-.264-.071-.468-.082-.3-.092-.41-.053-.603.043-.23.039-.235-.114-.33a4.332 4.332 0 01-.374-.265c-.26-.221-.571-.38-.72-.368-.063.007-.141-.012-.171-.042-.091-.073-.414.107-.702.397-.127.13-.251.24-.276.24-.128.01-.495.78-.538 1.127-.016.092-.041.193-.068.212-.083.063-.05.56-.042 1.014l.007.454.279.108c.144.058.34.165.43.225.222.172.422.403.519.517.07.075.13.163.132.193.007.074-.173.09-.254.019-.094-.076-.274-.12-.488-.221-.224-.111-.321-.105-.314.017.005.049-.05.199-.128.324-.342.565-.325.678.084.835.22.092.229.092.509-.03.209-.083.317-.17.394-.307.195-.358.498-.221.464.217-.018.27-.168.489-.502.753-.218.167-.308.2-.618.235-.198.024-.42.025-.483.01-.143-.038-.226.086-.234.014-.013-.131-.131-.2-.25-.14-.09.043-.34.586-.365.79-.083.708-.568 1.227-.614 1.46-.06.283-.381.707-.6.78a1.368 1.368 0 00-.358.214c-.325.259-.574.35-.77.293a.717.717 0 00-.36-.003c-.177.047-.217.032-.452-.166-.152-.124.068-.265.055-.415-.005-.054.02-.125.058-.15.043-.028.089-.173.116-.326.023-.152.072-.367.104-.473.038-.11.08-.245.092-.306.072-.228.109-.566.118-.882 0-.178.019-.38.04-.44.017-.06.032-.27.032-.466-.004-.575.034-.985.102-1.08.053-.076.047-.101-.037-.147-.076-.046-.105-.142-.133-.425-.017-.196-.013-.405.012-.464.025-.056.037-.32.032-.581-.04-1.116-.032-1.353.026-1.462a.435.435 0 00.06-.226c-.006-.06.03-.248.074-.418.053-.167.097-.376.105-.465l.009-.162-.17.123c-.095.07-.275.282-.4.467-.245.37-.11.568-.22.588-.05.005-.116.069-.138.14a7.449 7.449 0 01-.154.378c-.121.3-.125.5-.008.488.106-.004.109.07.014.168-.052.054-.064.125-.032.223.036.114.022.16-.057.218-.12.076-.135.209-.025.232.039.007.015.088-.07.229-.13.208-.116.32.028.305.104-.006.104.043.002.177a.342.342 0 01-.201.119c-.163.01-.163.174-.005.203.124.015.15.083.066.145-.031.023-.034.085-.006.14.023.063 0 .162-.06.25-.054.084-.096.2-.087.256.006.058-.052.165-.128.247-.15.153-.117.223.104.21.2-.02.235.07.07.173-.08.044-.142.104-.14.129.002.028-.072.08-.17.125-.155.067-.171.094-.153.28.028.232.037.232.302-.087.16-.188.395-.247.319-.086a.865.865 0 01-.142.215c-.056.062-.103.145-.101.186.005.04-.043.198-.103.343-.103.248-.133.403-.071.397.018 0 .108-.096.203-.21.18-.217.026.153-.076.388-.07.17-.07.227-.008.307.063.084.053.136-.062.342-.181.336-.23.533-.134.61m4.547 0c.04-.23.107-.336.208-.341.099-.012.108.12.015.213a.272.272 0 00-.063.187c.018.11.023.107.07-.021.2-.55.468-.861.77-.888.156-.018.23-.057.303-.175.062-.094.13-.141.185-.124.055.012.147-.018.216-.077.066-.052.175-.09.236-.075.07.01.15-.027.21-.1.08-.093.089-.176.05-.464-.047-.342-.043-.362.119-.535.13-.143.184.03.089.153l-.134.16.129.009c.1.006.12.027.1.123-.071.348-.071.369.085.36.224-.02.56.228.75.552.178.294.226.47.145.525-.02.018-.098-.108-.166-.28-.118-.288-.402-.61-.527-.602-.074.008-.044.084.07.188.122.115.264.535.339.992.06.367.046.519-.05.529-.055.005-.055.094-.008.359.055.333.052.366-.072.498-.065.08-.124.202-.117.264.014.147-.075.072-.137-.116-.037-.104-.02-.164.082-.273.124-.123.126-.152.06-.497-.06-.34-.06-.36.047-.397.086-.04.099-.07.06-.167a2.991 2.991 0 01-.098-.363c-.065-.309-.208-.563-.33-.584a1.07 1.07 0 00-.385.047c-.012.005.163.205.119.224-.05.018-.048.052.012.138.05.072.059.148.032.216-.026.053-.057.251-.08.441-.015.192-.055.366-.087.39-.106.083-.158.441-.122.824.043.481.14.71.283.66.055-.022.099-.018.103.011.01.076-.184.306-.268.315-.183.018-.573-.718-.526-1.003.01-.076-.008-.152-.04-.169-.145-.07-.07-.114-.082-.218-.007-.075-.04-.128-.084-.125-.105.013-.376-.263-.435-.426-.027-.074-.016-.259.016-.412.078-.345.073-.436-.025-.423-.132.01-.264.302-.273.608-.01.16-.037.29-.065.294-.026 0-.054-.027-.06-.064a2.523 2.523 0 01.002-.644c.027-.145.023-.16-.037-.1-.108.108-.268.497-.373.896-.076.284-.083.44-.036.768.043.336.04.411-.025.414-.068.004-.093-.114-.161-.744-.042-.418-.061-.844-.04-.95m-3.021 6.294c-.043-.044-.086-.078-.1-.075m.293-7.24c.027.016.064 0 .082-.035.013-.027.69.371.74.367.144-.01.036-.963.112-1 .063-.03.118-.34.153-.873.005-.078.037-.355.067-.618.03-.268-.048-.7.089-.859a.596.596 0 00.147-.32c.002-.1.047-.184.12-.222.14-.079.148-.406.01-.34-.043.021-.078.015-.083-.012-.008-.1-.155-.039-.171.07-.014.081-.061.116-.175.124-.086.01-.182.046-.213.08a.867.867 0 01-.167.137c-.161.101-.471.774-.453.976a.147.147 0 01-.048.12c-.032.02-.04.102-.016.172.032.098.014.144-.066.173-.074.024-.092.065-.064.147.023.058.022.282-.005.498a3.795 3.795 0 00-.031.522c.008.072-.008.161-.034.19a.702.702 0 00-.044.272c-.003.122-.003.26-.003.313 0 .05.023.105.053.117m.087-3.24c.038 0 .164-.138.292-.297.138-.177.287-.308.383-.339.087-.02.314-.089.499-.152.42-.13 1.26-.225 1.675-.182.482.052.655.052.65 0-.004-.03-.091-.082-.198-.12a.731.731 0 01-.233-.123c-.021-.03-.084-.033-.133-.011-.051.02-.24.014-.418-.016a4.865 4.865 0 00-.894 0c-.588.052-.737.106-1.061.38a.523.523 0 01-.222.12c-.113.012-.35.227-.384.352-.05.151-.016.392.044.387m.057-2.944c.027-.005.05-.03.048-.057m.315 1.87c.01.013.093-.028.174-.088.095-.069.33-.143.594-.187.445-.08.445-.08.445-.24 0-.095.022-.19.049-.222.024-.032.034-.13.029-.23-.012-.098.005-.193.035-.212.026-.022.036-.18.022-.349a2.55 2.55 0 01.01-.525c.058-.353.06-1.529.004-1.577-.028-.026-.06-.113-.066-.194-.024-.273-.252-.619-.452-.68-.181-.056-.19-.05-.34.15-.086.123-.16.234-.16.26.007.025-.032.155-.078.291-.05.133-.092.338-.098.456-.01.205-.05.636-.087 1.007a1 1 0 01-.062.27c-.018.038 0 .17.05.292.072.188.072.26 0 .514-.06.234-.067.316-.01.391.055.076.047.127-.059.288-.1.155-.117.226-.078.38.027.1.063.19.077.205m2.035-.693l.006-.267m-.181 2.667c.168.252.61.568.817.583.106.01.273.032.369.043.326.05.916-.252 1.03-.526.089-.22.083-.266-.026-.125-.16.217-.344.324-.637.353-.337.037-.506 0-.763-.183a1.09 1.09 0 01-.415-.572c-.05-.149.076-.648.177-.694.056-.024-.135-.266-.128-.229 0 .047-.074.116-.176.16-.361.154-.498.82-.248 1.19m2.57-5.76c.06-.005.753.376.914.5.37.303.564.411.73.422.1.003.204.03.222.053.014.022.113.007.209-.029.098-.035.203-.065.224-.057.023.005.097-.03.163-.08.09-.076.105-.143.087-.362-.03-.294-.174-.525-.401-.644-.073-.04-.245-.129-.378-.206a1.36 1.36 0 00-.5-.153c-.367-.027-.824.014-.821.075.004.03-.053.074-.115.1-.24.1-.503.402-.334.38m.442-.145c.095-.01.485.102.85.228.356.121.652.347.668.511.019.128-.174.14-.321.02-.066-.055-.152-.099-.187-.094-.035.004-.13-.035-.21-.083-.115-.072-.287-.197-.46-.278-.173-.076-.326-.18-.34-.225-.013-.046-.013-.079 0-.079m.355-.252c.01 0 .208.015.447.04.46.047.736.15.872.333.124.162.018.264-.181.162-.332-.159-.73-.294-.924-.309-.157-.012-.212-.04-.217-.119-.004-.06-.004-.107.003-.107m.538 14.408a.319.319 0 00-.021-.16m.33-.214a.458.458 0 01-.06.24m1.464.927c-.027-.008-.055-.069-.057-.143m.146-4.26c.136.14.312.31.399.374.188.146.754.842.756.933.005.03.336.735.378.687.014-.02.259.256.486.463.403.366 1.047.507 1.104.494.073-.026.023-.106-.257-.432a5.182 5.182 0 01-.53-.772c-.34-.679-.505-.93-.785-1.154a13.278 13.278 0 00-.89-.623c-.262-.173-.31-.08-.695-.239-.286-.119-.28-.065.034.27m1.868 6.194c-.043-.019-.054-.015-.024.014"/></g></g></svg>