<svg xmlns="http://www.w3.org/2000/svg" xmlns:xlink="http://www.w3.org/1999/xlink" width="1140" height="685" viewBox="0 0 1140 685"><title>Artboard 1 Copy 10</title><defs><path id="a" d="M.17 31.323H33.7V1H.17v30.323z"/><path id="c" d="M.583 31.683h30.635V.83H.583v30.854z"/><path id="e" d="M.583 31.683h30.635V.83H.583v30.854z"/><path id="g" d="M.39 35.981h40.873V1.322H.39v34.66z"/><path id="i" d="M.332 32.286h32.18V.101H.332v32.185z"/><path id="k" d="M0 0h782v169.299H0V0z"/></defs><g fill="none" fill-rule="evenodd"><path fill="#FAFAFA" d="M-28 0h1168v712H-28z"/><path fill="#666" d="M-22 0h1184v685H-22z"/><g stroke="#FFF"><path d="M719.955 290.255c0 16.326-13.235 29.56-29.56 29.56s-29.56-13.234-29.56-29.56c0-16.325 13.235-29.56 29.56-29.56s29.56 13.235 29.56 29.56h0zM478.968 290.255c0 16.326-13.235 29.56-29.56 29.56s-29.56-13.234-29.56-29.56c0-16.325 13.235-29.56 29.56-29.56s29.56 13.235 29.56 29.56h0zM238.792 290.576c0 16.325-13.235 29.56-29.56 29.56s-29.56-13.235-29.56-29.56c0-16.326 13.235-29.56 29.56-29.56s29.56 13.234 29.56 29.56h0zM960.328 289.232c0 16.325-13.235 29.56-29.56 29.56s-29.56-13.235-29.56-29.56 13.235-29.56 29.56-29.56 29.56 13.235 29.56 29.56h0z"/></g><g transform="translate(676.148 273.78)"><mask id="b" fill="#fff"><use xlink:href="#a"/></mask><path stroke="#FFF" stroke-width=".7" d="M1.254 1.157l1.087 1.45-.107-1.606 1.143 1.507c6.595-1.194 8.876 6.59 8.876 6.59 3.425 3.22 8.566 2.126 8.566 2.126 4.256-.777 6.485 2.077 6.485 2.077 4.357.26 4.564 5.451 4.564 5.451-.051 2.854 1.87 4.618 1.87 4.618-4.256.051-4.983-5.397-4.983-5.397-.364-4.1-1.142-3.477-1.142-3.477.831 3.214-3.27 6.485-3.27 6.485.156.52.883.67.883.67 1.973 1.093.833 1.508.833 1.508-.677 1.091-1.66.883-1.66.883.1 1.25-1.25 2.18-1.25 2.18-.778 1.87-2.436 3.27-2.436 3.27-.309 0-.466.363-.466.363 0 .987-1.298.987-1.298.987-.888 0-.985-.26-.985-.26.152-1.297 2.072-1.661 2.072-1.661.78-.567.21-.728.21-.728-1.196.313-.468-1.35-.468-1.35.055-1.97 1.658-2.384 1.658-2.384.676-.157.728-.522.728-.522-1.036-.878-1.503-3.685-1.503-3.685-.625.102-1.505-.57-1.505-.57-3.163 1.662-9.29-.363-9.29-.363 0 1.505-.778 3.531-.778 3.531.364 3.686-.105 4.979-.105 4.979-.415.936-.466.885-.466.885.778 1.036-.313 1.19-.313 1.19h-.985c-1.66-.104-.622-.932-.622-.932 1.607-1.036 1.4-2.386 1.4-2.386-.051-.83-.258-4.67-.258-4.67-.106-1.664-.673-2.183-.673-2.183-.577.778-3.947 1.142-3.947 1.142-1.088 1.92 1.456 3.736 1.456 3.736.463-.83 1.191.154 1.191.154.723 1.508.26 1.557.26 1.557-.622.053-1.66-.88-1.66-.88-1.97-.412-3.012-3.945-3.012-3.945-.625-1.922 2.39-2.386 2.39-2.386 2.493-.936 1.557-1.713 1.557-1.713-1.404-2.026-.263-3.22-.263-3.22.573-.62.521-1.82.521-1.82-1.04-2.228-.984-4.977-.984-4.977C4.26 8.521 2.86 9.403 2.86 9.403s.31-1.972 0 .207C2.548 11.792.784 10.646.784 10.646-.459 9.871.577 7.952.577 7.952c-.055-2.128 1.038-4.57 1.038-4.57l-.36-2.225h0z" mask="url(#b)"/></g><g transform="translate(192.436 273.78)"><mask id="d" fill="#fff"><use xlink:href="#c"/></mask><path stroke="#FFF" stroke-width=".7" d="M10.471 13.245l1.39 1.192c.248-.284.505-.567.763-.846l-1.407-1.207.829-.97 1.443 1.238c.22-.236.44-.473.672-.715l-1.402-1.195.824-.972 1.475 1.27c.294-.293.593-.582.887-.865l-1.454-1.25.83-.966 1.56 1.338.801-.724-1.616-1.385.829-.97 1.77 1.526c3.1-2.577 6.518-4.791 10.182-6.188-1.181-.483-3.065-.776-5.302-.776-5.285 0-12.507 1.616-16.926 6.04-6.415 6.42-6.924 18.727-5.16 22.475 0 0 3.59-6.829 9.568-13.894l-1.385-1.19.829-.966h0z" mask="url(#d)"/></g><g transform="translate(192.436 273.78)"><mask id="f" fill="#fff"><use xlink:href="#e"/></mask><path stroke="#FFF" stroke-width=".7" d="M30.17 2.585c-.006 0-4.368 1.669-10.1 6.36l.85.73-.828.961-1.008-.86c-.273.226-.54.466-.818.708l1.075.923-.824.966-1.197-1.028c-.298.279-.603.56-.902.855l1.185 1.024-.823.96-1.27-1.086c-.231.23-.457.467-.683.709l1.24 1.06-.83.965-1.28-1.097c-.258.273-.515.551-.768.84l1.302 1.118-.829.966-1.302-1.118C9.16 20.3 5.931 24.954 3.054 30.707c1.187.477 3.029.755 5.223.755 5.291 0 12.513-1.616 16.933-6.04 6.644-6.645 6.953-19.624 4.96-22.837h0z" mask="url(#f)"/></g><g transform="translate(909.942 271.093)"><mask id="h" fill="#fff"><use xlink:href="#g"/></mask><path fill="#FFF" d="M24.96 4.038a.4.4 0 0 1-.398-.4V1.72a.398.398 0 0 1 .798 0v1.918a.4.4 0 0 1-.4.4zm2.72 1.125a.398.398 0 0 1-.28-.683l1.354-1.355a.399.399 0 1 1 .565.565L27.96 5.047a.396.396 0 0 1-.282.116zm-5.438 0a.395.395 0 0 1-.281-.116L20.604 3.69a.399.399 0 1 1 .564-.564l1.357 1.355a.4.4 0 0 1-.283.682zm-1.126 2.719h-1.92a.398.398 0 1 1 0-.797h1.92a.398.398 0 1 1 0 .797zm9.608 0h-1.919a.399.399 0 1 1 0-.797h1.919a.399.399 0 1 1 0 .797zM24.96 5.607a1.877 1.877 0 0 0 0 3.753 1.879 1.879 0 0 0 1.877-1.877 1.878 1.878 0 0 0-1.877-1.876zm0 4.55a2.677 2.677 0 0 1-2.673-2.674c0-1.476 1.2-2.674 2.673-2.674a2.677 2.677 0 0 1 2.675 2.674c0 1.474-1.2 2.675-2.675 2.675zm-4.073 1.801a.4.4 0 0 1-.284-.681l1.358-1.357a.399.399 0 0 1 .564.563l-1.357 1.357a.403.403 0 0 1-.28.118zm8.148 0a.396.396 0 0 1-.28-.118l-1.357-1.357a.395.395 0 0 1 0-.563.397.397 0 0 1 .563 0l1.358 1.357a.4.4 0 0 1-.284.681zm-4.075 1.687a.398.398 0 0 1-.398-.398v-1.919a.399.399 0 1 1 .798 0v1.919c0 .22-.179.398-.4.398zm-17.532-3.23a2.255 2.255 0 0 0-2.253 2.253 2.255 2.255 0 0 0 2.253 2.252h9.42c.747 0 1.355-.609 1.355-1.355 0-.745-.608-1.354-1.355-1.354-.258 0-.506.072-.721.21a.403.403 0 0 1-.433-.003.402.402 0 0 1-.176-.394 3.403 3.403 0 0 0-3.362-3.903c-1.447 0-2.737.919-3.211 2.283a.402.402 0 0 1-.55.23 2.245 2.245 0 0 0-.967-.22zm9.42 5.301h-9.42a3.05 3.05 0 0 1-3.049-3.048 3.052 3.052 0 0 1 3.968-2.91 4.2 4.2 0 0 1 3.81-2.435 4.203 4.203 0 0 1 4.197 4.148A2.156 2.156 0 0 1 19 13.566a2.154 2.154 0 0 1-2.153 2.15zm13.875.717a.606.606 0 0 0 0 1.209h5.392a1.12 1.12 0 1 0-.481-2.127.403.403 0 0 1-.325.008.39.39 0 0 1-.224-.238 1.777 1.777 0 0 0-1.678-1.193 1.779 1.779 0 0 0-1.753 2.04.402.402 0 0 1-.178.393.403.403 0 0 1-.43.003.599.599 0 0 0-.323-.095zm5.392 2.008h-5.392a1.403 1.403 0 1 1 .123-2.798 2.574 2.574 0 0 1 4.833-.985 1.92 1.92 0 0 1 2.351 1.866c0 1.057-.86 1.917-1.915 1.917zM23.69 24.928c.06 0 .12.004.184.013.626.079.91.554 1.138.937.262.44.422.67.868.645.449-.02.591-.291.802-.764.172-.386.387-.868.938-.954.771-.121 1.227.332 1.559.664.26.262.388.374.55.356.088-.011.124-.043.149-.078.107-.145.108-.453.087-.636l-2.26-3.344-.014-.02a1.69 1.69 0 0 0-1.354-.839 1.683 1.683 0 0 0-1.457.643l-3.36 4.335.226.053c.188.04.334-.071.645-.359.302-.28.705-.652 1.299-.652zm-12.146 2.776c.131.233.47.604 1.284.604.692 0 .966-.195 1.31-.445.323-.23.684-.493 1.356-.617.817-.149 1.25.104 1.538.27.223.128.25.144.417.06.21-.11.355-.202.451-.275l-1.913-1.913a1.702 1.702 0 0 0-1.27-.5c-.48.018-.919.226-1.232.59l-1.941 2.226zm20.908-.337l.638.945c.043-.062.089-.125.135-.186l-.515-1.54-.258.781zM7.566 29.693l-.384 1.8.746-.857-.335-1.076-.025.125c-.002.003-.002.005-.002.008zm27.994 2.275l.595.881c.766-.403 1.28-1.347 1.28-2.409 0-1.44-.935-2.612-2.086-2.612-.504 0-.978.226-1.35.62a.426.426 0 0 1-.061.068 2.52 2.52 0 0 0-.352.53l1.151 1.707-.189-1.691a.4.4 0 1 1 .794-.09l.196 1.753.617-.763a.4.4 0 0 1 .622.502l-1.217 1.504zM5.55 29.215c-1.116 0-1.618 1.255-1.618 2.144 0 1.567.87 2.081 1.322 2.244v-1.03l-.664-1.05a.4.4 0 0 1 .125-.55.398.398 0 0 1 .55.124l.725 1.146c.04.065.062.139.062.213v.33l.05-.056.651-3.058c-.114-.152-.436-.457-1.202-.457zm-.492 5.926h8.28l5.414-6.986-.283-.285c-.15.123-.362.263-.655.414-.555.286-.917.076-1.182-.078-.24-.14-.466-.272-.993-.174-.496.092-.746.27-1.035.48-.387.278-.826.594-1.776.594-.928 0-1.504-.384-1.825-.783l-2.321 2.664c-.003.003-.007.005-.01.01L6.78 33.168l-.016.016-.804.922c-.002.005-.008.01-.012.015l-.89 1.02zm9.29 0h22.394l-1.055-1.56c-.008-.009-.013-.018-.02-.029l-2.858-4.231a.281.281 0 0 1-.021-.03l-2.176-3.22a.992.992 0 0 1-.794.547c-.557.065-.913-.296-1.204-.584-.32-.317-.515-.494-.87-.44-.116.017-.202.196-.332.489-.211.475-.53 1.191-1.494 1.238-.952.043-1.318-.579-1.591-1.034-.218-.366-.336-.528-.554-.556-.307-.038-.522.14-.842.436-.332.307-.745.687-1.36.55l-.591-.135-6.632 8.56zm23.145.799H.79a.4.4 0 0 1-.4-.4c0-.218.18-.399.4-.399H4l.762-.873c-.762-.355-1.627-1.208-1.627-2.909 0-1.425.846-2.941 2.417-2.941.64 0 1.087.165 1.393.364l.186-.879a.406.406 0 0 1 .373-.317.405.405 0 0 1 .4.28l.641 2.064 2.234-2.563.004-.004 2.101-2.41a2.513 2.513 0 0 1 3.668-.129L18.725 27l.018.016.5.502L20.5 25.9l.01-.012 3.744-4.832a2.51 2.51 0 0 1 4.12.273l3.513 5.201.44-1.338a.4.4 0 0 1 .759-.001l.776 2.322c.438-.312.95-.483 1.488-.483 1.59 0 2.885 1.53 2.885 3.41 0 1.32-.652 2.512-1.63 3.07l1.099 1.63h3.182a.399.399 0 0 1 0 .799h-3.392z" mask="url(#h)"/></g><path fill="#FFF" d="M459.244 304.421a5.453 5.453 0 0 1-5.384-6.282c.229.919.685 1.746 1.307 2.422v.501a.279.279 0 0 0 .555.027c.163.133.334.257.511.371v.262a.278.278 0 0 0 .552.054c.167.083.337.157.513.224v.17c0 .153.125.278.28.278.15 0 .273-.121.277-.27.166.041.336.079.509.104v.183a.279.279 0 0 0 .558 0v-.122a4.27 4.27 0 0 0 .508.005v.117a.278.278 0 1 0 .557 0v-.164a5.73 5.73 0 0 0 .508-.091v.047c0 .154.124.278.28.278.153 0 .279-.124.279-.278v-.207a6.09 6.09 0 0 0 .512-.208.278.278 0 0 0 .553-.05v-.243c.195-.12.382-.25.562-.394a.272.272 0 0 0 .225.114c.154 0 .279-.123.279-.277v-.286a5.572 5.572 0 0 0 1.444-2.567 5.454 5.454 0 0 1-5.385 6.283m0-10.896a5.456 5.456 0 0 1 4.99 3.264l-.001.018a4.973 4.973 0 0 1-1.053 3.061.278.278 0 0 0-.552.055v.546c-.163.148-.331.283-.509.41v-.156a.28.28 0 0 0-.558 0v.498a4.93 4.93 0 0 1-.507.233v-.265a.28.28 0 0 0-.28-.28.279.279 0 0 0-.279.28v.446a5.147 5.147 0 0 1-.508.104v-.342a.28.28 0 1 0-.557 0v.394l-.186.003c-.107 0-.215-.003-.321-.011v-.386a.28.28 0 1 0-.559 0v.317a4.815 4.815 0 0 1-.508-.118v-.496a.28.28 0 0 0-.278-.28.28.28 0 0 0-.28.28v.299a4.963 4.963 0 0 1-.507-.253v-.492a.28.28 0 1 0-.558 0v.125a5.137 5.137 0 0 1-.508-.442v-.343a.278.278 0 0 0-.473-.2 4.974 4.974 0 0 1-.996-2.99v-.015a5.455 5.455 0 0 1 4.988-3.264m0-.558a6.011 6.011 0 0 0-6.006 6.005 6.012 6.012 0 0 0 6.006 6.006 6.013 6.013 0 0 0 6.008-6.006 6.012 6.012 0 0 0-6.008-6.005"/><g transform="translate(432.948 273.78)"><mask id="j" fill="#fff"><use xlink:href="#i"/></mask><path fill="#FFF" d="M31.62 5.658L15.065 22.212a.972.972 0 0 1-1.376 0l-.67-.67a.282.282 0 0 0-.396 0l-8.156 8.156-1.603-1.603.46-.46.813.815a.283.283 0 0 0 .395 0 .284.284 0 0 0 0-.396l-.814-.812 7.304-7.302a.282.282 0 0 0 0-.396l-.672-.671a.973.973 0 0 1 0-1.375L26.905.943a.975.975 0 0 1 1.376 0l3.34 3.34a.959.959 0 0 1 .284.687c0 .26-.1.504-.285.688zM4.378 31.453a.73.73 0 0 1-.527.22.727.727 0 0 1-.527-.22L1.11 29.24a.739.739 0 0 1-.218-.527c0-.199.077-.387.218-.527a.74.74 0 0 1 1.055 0l2.214 2.216a.738.738 0 0 1 0 1.052zm.65-28.258c0-.269.156-.457.297-.457H8.08c.14 0 .298.188.298.457v18.599l-3.35 3.35V3.194zm5.525-.457h2.756c.141 0 .298.188.298.457v10.257l-3.35 3.35V3.195c0-.269.156-.457.296-.457zm4.933.457c0-.269.156-.457.297-.457h2.756c.14 0 .296.188.296.457v5.028l-3.35 3.35V3.195zM32.464 4.97c0-.408-.16-.793-.449-1.083l-3.34-3.34a1.535 1.535 0 0 0-2.165 0l-7.117 7.117V3.195c0-.559-.383-1.014-.854-1.014h-2.756c-.472 0-.856.455-.856 1.014v8.937l-.762.761V3.195c0-.559-.384-1.014-.856-1.014h-2.756c-.47 0-.854.455-.854 1.014v14.107a.29.29 0 0 0 .021.107 1.533 1.533 0 0 0 .235 1.859l.475.474-1.495 1.493V3.195c0-.559-.384-1.014-.855-1.014H5.325c-.471 0-.856.455-.856 1.014v22.466c0 .012.003.024.004.036l-2.008 2.009a1.295 1.295 0 0 0-1.751.086 1.304 1.304 0 0 0 0 1.842l2.215 2.216c.246.245.573.381.922.381a1.298 1.298 0 0 0 1.303-1.303c0-.307-.104-.598-.298-.83l7.965-7.964.473.474a1.534 1.534 0 0 0 2.166 0L32.015 6.053c.29-.29.449-.673.449-1.083z" mask="url(#j)"/></g><g transform="translate(179 259)"><path fill="#FFF" d="M281.434 17.042L270.286 28.19a.28.28 0 000 .395.283.283 0 00.395 0l11.148-11.148a.278.278 0 000-.394.28.28 0 00-.395 0M259.8 18.78a.279.279 0 00-.28.278v15.188a.278.278 0 10.557 0V19.058a.278.278 0 00-.278-.279M614.323 154.532v-30.568h14.738v6.55h6.55v24.018h-21.288zm15.83-29.797l4.687 4.688h-4.688v-4.688zm6.55 5.008l-6.869-6.87h-16.602v32.75h23.47v-25.88zM645.437 154.403l-1.638-3.275V128.33h3.275v22.797l-1.637 3.275zm1.637-27.164H643.8v-4.367h3.275v4.367zm1.092-5.458h-5.458v29.605l2.729 5.457 2.729-5.457V121.78z"/><mask id="l" fill="#fff"><use xlink:href="#k"/></mask><path fill="#FFF" d="M617.599 128.331h6.55v1.091h-6.55v-1.09zM617.599 133.79h14.738v1.09h-14.738v-1.09zM617.599 138.156h14.738v1.091h-14.738v-1.091zM617.599 142.523h14.738v1.09h-14.738v-1.09zM617.599 146.89h14.738v1.09h-14.738v-1.09z" mask="url(#l)"/><path stroke="#FFF" d="M661.408 138.747c0 16.325-13.235 29.56-29.56 29.56s-29.56-13.235-29.56-29.56 13.235-29.56 29.56-29.56 29.56 13.235 29.56 29.56h0zM422.24 138.747c0 16.325-13.235 29.56-29.56 29.56-16.326 0-29.56-13.235-29.56-29.56s13.234-29.56 29.56-29.56c16.325 0 29.56 13.235 29.56 29.56h0zM182.064 139.067c0 16.325-13.235 29.56-29.56 29.56-16.326 0-29.56-13.235-29.56-29.56s13.234-29.56 29.56-29.56c16.325 0 29.56 13.235 29.56 29.56h0z" mask="url(#l)"/><path stroke="#FFF" stroke-width="1.208" d="M617.963 145.116l4.582 4.58 10.163-12.884" mask="url(#l)"/><path fill="#FFF" d="M409.665 141.45h-34.64v-17.897h34.64v17.898zm0 4.62h-34.64v-3.464h34.64v3.464zm-35.796 1.154h17.897v5.774h-5.196v1.154h11.547v-1.154h-5.196v-5.774h17.898V122.4h-36.95v24.825zM169.84 151.31l-16.759 2.163v-26.575l16.76-2.16v26.573zm-34.674-26.573l16.76 2.161v26.575l-16.76-2.162v-26.574zm-1.155-1.315v28.904l18.492 2.385 18.493-2.385v-28.904l-18.493 2.386-18.492-2.386z" mask="url(#l)"/><path fill="#FFF" d="M138.116 129.284l10.98 1.155-.12 1.15-10.98-1.157.12-1.148zM148.976 137.368l-10.98-1.156.12-1.151 10.98 1.158-.12 1.149zM148.976 143.146l-10.98-1.155.12-1.152 10.98 1.159-.12 1.148zM148.976 148.925l-10.98-1.155.12-1.152 10.98 1.158-.12 1.15zM166.89 129.284l.122 1.148-10.98 1.156-.122-1.152 10.98-1.152zM166.89 135.062l.122 1.15-10.98 1.155-.122-1.152 10.98-1.153zM166.891 140.841l.12 1.15-10.98 1.154-.12-1.15 10.98-1.154zM156.03 148.924l-.12-1.15 10.98-1.153.12 1.15-10.98 1.153z" mask="url(#l)"/></g></g></svg>