<svg xmlns="http://www.w3.org/2000/svg" width="1140" height="685" viewBox="0 0 1140 685"><title>Artboard 1 Copy 4</title><g fill="none" fill-rule="evenodd"><path fill="#FAFAFA" d="M-1 0h1168v712H-1z"/><text fill="#333" font-family="Adobe Garamond Pro" font-size="114" letter-spacing="2.85"><tspan x="245" y="232">Learn</tspan></text><text fill="#EF4437" font-family="Gill Sans" font-size="32" letter-spacing=".8"><tspan x="245" y="336">AT HEADFORT, YOUR CHILD WILL LEARN THE EDUCATIONAL FUNDAMENTALS </tspan> <tspan x="245" y="395">AND VALUES THAT WILL NOURISH THEM FOR THE REST OF THEIR LIVES.</tspan></text><text fill="#333" font-family="Adobe Garamond Pro" font-size="34" letter-spacing=".85"><tspan x="245" y="513.645">With an unwavering commitment to each and every child’s learning, a Headfort </tspan> <tspan x="245" y="579.445">education is like no other. While we teach children the national curriculum and work </tspan> <tspan x="245" y="645.245">to standardised tests, the staff at Headfort work to do more than ensure that every child </tspan> <tspan x="245" y="711.045">excels at these: we educate children for a rapidly changing world, and provide with </tspan> <tspan x="245" y="776.845">them with information and tools they can rely on – a He</tspan></text><text fill="#AAA" font-family="Proxima Nova" font-size="12" letter-spacing=".3" opacity=".5"><tspan x="80.016" y="197">h1: Garamond, 48px</tspan></text><text fill="#AAA" font-family="Proxima Nova" font-size="12" letter-spacing=".3" opacity=".5"><tspan x="89.592" y="355">h2: Gil Sans, 24px</tspan></text><text fill="#AAA" font-family="Proxima Nova" font-size="12" letter-spacing=".3" opacity=".5"><tspan x="66.18" y="543">body: Garamond, 14px </tspan></text><path fill="#AAA" d="M216.86 230.432h4.1v-1.64h-3.936c-.765 0-1.435-.123-2.009-.369-.574-.246-1.039-.697-1.394-1.353s-.629-1.572-.82-2.747c-.191-1.175-.287-2.665-.287-4.469v-13.202c0-3.116-.533-5.918-1.599-8.405-1.066-2.487-2.501-4.168-4.305-5.043 1.039-.437 1.927-1.148 2.665-2.132a14.178 14.178 0 001.845-3.362 19.01 19.01 0 001.066-3.936c.219-1.367.328-2.651.328-3.854v-13.448c0-3.39.342-5.699 1.025-6.929.683-1.23 1.845-1.845 3.485-1.845h3.936v-1.64h-4.1c-2.296 0-3.868.71-4.715 2.132-.847 1.421-1.271 3.69-1.271 6.806v13.53c0 1.64-.137 3.253-.41 4.838-.273 1.585-.67 3.007-1.189 4.264-.52 1.257-1.134 2.296-1.845 3.116-.71.82-1.53 1.312-2.46 1.476v1.64c2.405 1.585 3.99 3.512 4.756 5.781.765 2.269 1.148 5.07 1.148 8.405v13.284c0 3.116.424 5.412 1.271 6.888s2.419 2.214 4.715 2.214zM216.86 390.432h4.1v-1.64h-3.936c-.765 0-1.435-.123-2.009-.369-.574-.246-1.039-.697-1.394-1.353s-.629-1.572-.82-2.747c-.191-1.175-.287-2.665-.287-4.469v-13.202c0-3.116-.533-5.918-1.599-8.405-1.066-2.487-2.501-4.168-4.305-5.043 1.039-.437 1.927-1.148 2.665-2.132a14.178 14.178 0 001.845-3.362 19.01 19.01 0 001.066-3.936c.219-1.367.328-2.651.328-3.854v-13.448c0-3.39.342-5.699 1.025-6.929.683-1.23 1.845-1.845 3.485-1.845h3.936v-1.64h-4.1c-2.296 0-3.868.71-4.715 2.132-.847 1.421-1.271 3.69-1.271 6.806v13.53c0 1.64-.137 3.253-.41 4.838-.273 1.585-.67 3.007-1.189 4.264-.52 1.257-1.134 2.296-1.845 3.116-.71.82-1.53 1.312-2.46 1.476v1.64c2.405 1.585 3.99 3.512 4.756 5.781.765 2.269 1.148 5.07 1.148 8.405v13.284c0 3.116.424 5.412 1.271 6.888s2.419 2.214 4.715 2.214zM216.86 577.432h4.1v-1.64h-3.936c-.765 0-1.435-.123-2.009-.369-.574-.246-1.039-.697-1.394-1.353s-.629-1.572-.82-2.747c-.191-1.175-.287-2.665-.287-4.469v-13.202c0-3.116-.533-5.918-1.599-8.405-1.066-2.487-2.501-4.168-4.305-5.043 1.039-.437 1.927-1.148 2.665-2.132a14.178 14.178 0 001.845-3.362 19.01 19.01 0 001.066-3.936c.219-1.367.328-2.651.328-3.854v-13.448c0-3.39.342-5.699 1.025-6.929.683-1.23 1.845-1.845 3.485-1.845h3.936v-1.64h-4.1c-2.296 0-3.868.71-4.715 2.132-.847 1.421-1.271 3.69-1.271 6.806v13.53c0 1.64-.137 3.253-.41 4.838-.273 1.585-.67 3.007-1.189 4.264-.52 1.257-1.134 2.296-1.845 3.116-.71.82-1.53 1.312-2.46 1.476v1.64c2.405 1.585 3.99 3.512 4.756 5.781.765 2.269 1.148 5.07 1.148 8.405v13.284c0 3.116.424 5.412 1.271 6.888s2.419 2.214 4.715 2.214z" opacity=".5"/></g></svg>